<svg width="24" height="24" viewBox="0 0 24 24" fill="none" xmlns="http://www.w3.org/2000/svg">
<circle cx="12" cy="12" r="12" fill="#FFC45F"/>
<circle cx="6.18641" cy="11.4357" r="1.63636" fill="#020202"/>
<circle cx="18.101" cy="11.4357" r="1.63636" fill="#020202"/>
<path d="M14.218 16.1412L14.5726 16.3031C15.0146 16.5049 15.4053 16.8039 15.7156 17.1778C16.0792 17.616 16.3203 18.1426 16.4145 18.7042L16.4379 18.8434C16.5253 19.3649 16.1233 19.84 15.5945 19.84H15.5072H14.4095H12.2139H10.0184H8.92059H8.83272C8.30355 19.84 7.90058 19.3656 7.98617 18.8434L8.00958 18.7006C8.10125 18.1414 8.3393 17.6164 8.69957 17.179C9.00814 16.8043 9.39766 16.5045 9.83881 16.3021L10.1812 16.145C11.4623 15.5572 12.9358 15.5558 14.218 16.1412Z" fill="#020202"/>
</svg>
