<svg width="24" height="24" viewBox="0 0 24 24" fill="none" xmlns="http://www.w3.org/2000/svg">
<circle cx="12" cy="12" r="11" fill="#FCC145"/>
<circle cx="6.6709" cy="11.4828" r="1.5" fill="#020202"/>
<circle cx="17.5926" cy="11.4828" r="1.5" fill="#020202"/>
<path d="M14.0331 15.7961L14.3582 15.9445C14.7634 16.1295 15.1215 16.4035 15.4059 16.7463C15.7392 17.148 15.9603 17.6307 16.0466 18.1455L16.068 18.2731C16.1482 18.7512 15.7796 19.1867 15.2949 19.1867H15.2149H14.2087H12.1961H10.1835H9.17719H9.09664C8.61158 19.1867 8.24218 18.7518 8.32064 18.2731L8.3421 18.1422C8.42613 17.6296 8.64435 17.1484 8.97459 16.7474C9.25745 16.404 9.6145 16.1291 10.0189 15.9436L10.3328 15.7996C11.5071 15.2608 12.8578 15.2595 14.0331 15.7961Z" fill="#020202"/>
</svg>
