<svg width="24" height="24" viewBox="0 0 24 24" fill="none" xmlns="http://www.w3.org/2000/svg">
<circle cx="12" cy="12" r="11" fill="#2EB6FF"/>
<circle cx="6.5" cy="11.5" r="1.5" fill="#020202"/>
<circle cx="17.4988" cy="11.5" r="1.5" fill="#020202"/>
<path d="M1.95999 19.1473C1.97084 19.3944 2.33247 19.4057 2.35867 19.1597L2.72948 15.6794C2.74181 15.5637 2.65314 15.4619 2.53684 15.4583L2.01253 15.442C1.89622 15.4383 1.80139 15.5344 1.80649 15.6506L1.95999 19.1473Z" fill="#2EB6FF"/>
<path d="M4.07141 21.5124C4.10104 21.7439 4.43564 21.7458 4.46787 21.5146L4.89631 18.4421C4.91302 18.3222 4.82033 18.2151 4.69935 18.2144L3.87696 18.2098C3.75597 18.2091 3.66209 18.3152 3.67745 18.4352L4.07141 21.5124Z" fill="#2EB6FF"/>
<path d="M6.74937 23.0911C6.78406 23.3031 7.08305 23.3188 7.13968 23.1115L7.62457 21.337C7.65821 21.2139 7.56953 21.0913 7.4421 21.0846L6.66022 21.0437C6.53279 21.037 6.43178 21.1498 6.45239 21.2757L6.74937 23.0911Z" fill="#2EB6FF"/>
<path d="M17.0199 22.9484C17.0746 23.1012 17.2789 23.1286 17.372 22.9957L19.4993 19.958C19.5852 19.8352 19.5106 19.665 19.362 19.645L15.9841 19.1915C15.8356 19.1716 15.7187 19.3161 15.7692 19.4572L17.0199 22.9484Z" fill="#2EB6FF"/>
<path d="M20.4339 21.185C20.446 21.4194 20.7821 21.4449 20.8295 21.2151L21.8139 16.4399C21.8382 16.3218 21.7534 16.2092 21.6332 16.2001L20.3979 16.1061C20.2777 16.097 20.1768 16.1955 20.183 16.3159L20.4339 21.185Z" fill="#2EB6FF"/>
<rect x="7" y="14.1134" width="10" height="5" rx="2.5" fill="#020202"/>
<rect x="8.5354" y="15.5748" width="6.92914" height="2.07727" rx="1.03864" fill="#B2DDFC"/>
</svg>
