<svg width="24" height="24" viewBox="0 0 24 24" fill="none" xmlns="http://www.w3.org/2000/svg">
<circle cx="12" cy="11.9706" r="11.6234" fill="#2EB6FF"/>
<circle cx="6.18828" cy="11.4423" r="1.58501" fill="#020202"/>
<circle cx="17.8104" cy="11.4423" r="1.58501" fill="#020202"/>
<path d="M1.39759 19.6737C1.40844 19.9208 1.77007 19.9321 1.79627 19.6861L2.20537 15.8464C2.2177 15.7307 2.12903 15.6289 2.01273 15.6253L1.43428 15.6073C1.31797 15.6037 1.22314 15.6997 1.22824 15.816L1.39759 19.6737Z" fill="#2EB6FF"/>
<path d="M3.63283 22.1062C3.66247 22.3377 3.99707 22.3396 4.0293 22.1084L4.49551 18.765C4.51222 18.6451 4.41953 18.538 4.29855 18.5373L3.40365 18.5323C3.28266 18.5316 3.18878 18.6377 3.20414 18.7577L3.63283 22.1062Z" fill="#2EB6FF"/>
<path d="M6.46019 23.7417C6.49487 23.9537 6.79386 23.9694 6.85049 23.7621L7.3803 21.8233C7.41393 21.7002 7.32525 21.5775 7.19782 21.5708L6.34353 21.5261C6.2161 21.5194 6.11509 21.6322 6.13569 21.7581L6.46019 23.7417Z" fill="#2EB6FF"/>
<path d="M17.3118 23.5602C17.3665 23.7129 17.5708 23.7404 17.6639 23.6074L19.9349 20.3643C20.0209 20.2416 19.9463 20.0713 19.7977 20.0514L16.1915 19.5672C16.0429 19.5473 15.926 19.6918 15.9766 19.8329L17.3118 23.5602Z" fill="#2EB6FF"/>
<path d="M20.9164 21.7646C20.9285 21.999 21.2646 22.0245 21.312 21.7947L22.3727 16.6496C22.397 16.5315 22.3121 16.4189 22.1919 16.4098L20.861 16.3085C20.7408 16.2994 20.6399 16.3979 20.6461 16.5182L20.9164 21.7646Z" fill="#2EB6FF"/>
<rect x="6.71664" y="14.2038" width="10.5667" height="5.28337" rx="2.5" fill="#020202"/>
<rect x="8.33905" y="15.748" width="7.32184" height="2.195" rx="1.0975" fill="#B2DDFC"/>
</svg>
