<svg width="24" height="24" viewBox="0 0 24 24" fill="none" xmlns="http://www.w3.org/2000/svg">
<mask id="mask0_1_212" style="mask-type:alpha" maskUnits="userSpaceOnUse" x="0" y="5" width="24" height="19">
<path fill-rule="evenodd" clip-rule="evenodd" d="M2.87378 5.6844L7.59416 8.77845H17.4104L21.3733 5.76391C22.7564 7.6597 23.5725 9.99541 23.5725 12.5217C23.5725 18.861 18.4336 24 12.0943 24C5.75502 24 0.616028 18.861 0.616028 12.5217C0.616028 9.95997 1.45525 7.59422 2.87378 5.6844Z" fill="#FCC145"/>
</mask>
<g mask="url(#mask0_1_212)">
<circle cx="11.616" cy="12.2368" r="11" fill="#FFC45F"/>
</g>
<path fill-rule="evenodd" clip-rule="evenodd" d="M19.5816 6.38618L18.0526 3.91651C17.5477 3.10111 16.9539 2.34431 16.282 1.66002L15.0319 0.386915C14.4175 -0.238728 13.3717 -0.0836275 12.9653 0.69338C12.482 1.61765 11.1591 1.61765 10.6758 0.693379C10.2695 -0.0836281 9.22362 -0.23873 8.60928 0.386912L7.35916 1.66002C6.68724 2.34431 6.0934 3.10111 5.58857 3.91651L4.28604 6.02035C3.91597 5.6653 3.58114 5.27177 3.28782 4.84473L2.42134 3.58323C2.09506 3.1082 1.44546 2.98761 0.970426 3.3139C0.495392 3.64018 0.374806 4.28978 0.70109 4.76481L1.56757 6.02631C2.6698 7.63104 4.23156 8.86491 6.04778 9.56591C7.15644 9.99381 8.3346 10.2133 9.52297 10.2133H14.8946C16.0738 10.2133 17.2422 9.98828 18.337 9.55033C20.078 8.85393 21.5668 7.6459 22.607 6.08573L23.4956 4.75284C23.8152 4.27333 23.6857 3.62547 23.2061 3.3058C22.7266 2.98612 22.0788 3.1157 21.7591 3.59521L20.8705 4.92809C20.507 5.47343 20.0726 5.96324 19.5816 6.38618Z" fill="#9B4C19"/>
<circle cx="17.4548" cy="15.1304" r="1.56522" fill="#020202"/>
<circle cx="6.45349" cy="15.1304" r="1.56522" fill="#020202"/>
<path d="M14.1002 21.4415L14.4552 21.2794C14.8976 21.0774 15.2887 20.7781 15.5992 20.4039C15.9632 19.9653 16.2045 19.4381 16.2988 18.876L16.3222 18.7367C16.4097 18.2147 16.0073 17.7391 15.478 17.7391H15.3907H14.2919H12.0943H9.89665H8.79784H8.70989C8.18023 17.7391 7.77687 18.214 7.86255 18.7367L7.88598 18.8796C7.97773 19.4394 8.21601 19.9649 8.57662 20.4027C8.88548 20.7777 9.27536 21.0778 9.71693 21.2804L10.0597 21.4376C11.342 22.026 12.8168 22.0274 14.1002 21.4415Z" fill="#020202"/>
<path d="M14.3194 4.10341L13.559 5.14505C12.7112 6.30645 11.2933 6.90746 9.86914 6.70916V6.70916" stroke="#9B4C19" stroke-width="2" stroke-linecap="round"/>
<path d="M9.86917 4.10341L10.6296 5.14505C11.4774 6.30645 12.8952 6.90746 14.3194 6.70916V6.70916" stroke="#9B4C19" stroke-width="2" stroke-linecap="round"/>
</svg>
