<svg width="24" height="24" viewBox="0 0 24 24" fill="none" xmlns="http://www.w3.org/2000/svg">
<mask id="mask0_1_212" style="mask-type:alpha" maskUnits="userSpaceOnUse" x="1" y="5" width="22" height="18">
<path fill-rule="evenodd" clip-rule="evenodd" d="M3.16368 5.44756L7.68738 8.41268H17.0946L20.8924 5.52375C22.2178 7.34055 23 9.57894 23 12C23 18.0751 18.0751 23 12 23C5.92487 23 1 18.0751 1 12C1 9.54498 1.80426 7.27779 3.16368 5.44756Z" fill="#FCC145"/>
</mask>
<g mask="url(#mask0_1_212)">
<circle cx="12" cy="12" r="11" fill="#FCC145"/>
</g>
<path fill-rule="evenodd" clip-rule="evenodd" d="M19.2696 6.12009L17.8043 3.75332C17.3205 2.9719 16.7514 2.24663 16.1075 1.59086L14.9095 0.370794C14.3207 -0.228781 13.3184 -0.080143 12.929 0.664489C12.4658 1.55025 11.1981 1.55025 10.7349 0.664488C10.3455 -0.0801436 9.34323 -0.228783 8.75449 0.370791L7.55646 1.59086C6.91253 2.24663 6.34344 2.9719 5.85964 3.75333L4.61138 5.7695C4.25674 5.42925 3.93585 5.05211 3.65476 4.64287L2.82438 3.43393C2.51169 2.97869 1.88916 2.86313 1.43392 3.17582C0.97868 3.48851 0.863119 4.11104 1.17581 4.56628L2.00618 5.77522C3.06249 7.31308 4.55918 8.49554 6.29972 9.16733C7.36219 9.57741 8.49125 9.78773 9.63011 9.78773H14.7779C15.908 9.78773 17.0277 9.5721 18.0769 9.1524C19.7454 8.48502 21.1722 7.32732 22.1689 5.83216L23.0205 4.55481C23.3269 4.09528 23.2027 3.47441 22.7432 3.16806C22.2836 2.8617 21.6628 2.98588 21.3564 3.44541L20.5048 4.72276C20.1564 5.24537 19.7402 5.71477 19.2696 6.12009Z" fill="#9B4C19"/>
<circle cx="6.5" cy="14.5" r="1.5" fill="#020202"/>
<circle cx="17.5" cy="14.5" r="1.5" fill="#020202"/>
<path d="M14.1345 20.5481L14.4747 20.3927C14.8986 20.1992 15.2734 19.9124 15.571 19.5537C15.9198 19.1334 16.1511 18.6282 16.2415 18.0895L16.2639 17.956C16.3478 17.4557 15.9621 17 15.4549 17H15.3712H14.3181H12.2121H10.106H9.05302H8.96874C8.46114 17 8.07459 17.4551 8.1567 17.956L8.17915 18.093C8.26708 18.6294 8.49543 19.133 8.84101 19.5526C9.13701 19.9119 9.51065 20.1995 9.93382 20.3937L10.2623 20.5444C11.4912 21.1082 12.9045 21.1096 14.1345 20.5481Z" fill="#020202"/>
<path d="M22.2282 3.93243L21.4995 4.93067C20.687 6.04368 19.3283 6.61965 17.9634 6.42961V6.42961" stroke="#9B4C19" stroke-width="2" stroke-linecap="round"/>
<path d="M1.94217 3.93243L2.67088 4.93067C3.48338 6.04368 4.84215 6.61965 6.207 6.42961V6.42961" stroke="#9B4C19" stroke-width="2" stroke-linecap="round"/>
</svg>
