<svg width="24" height="24" viewBox="0 0 24 24" fill="none" xmlns="http://www.w3.org/2000/svg">
<circle cx="12" cy="12" r="12" fill="#FFC45F"/>
<path d="M10.6054 16.3636L7.63635 19.3327" stroke="#6D300E" stroke-width="2" stroke-linecap="round"/>
<path d="M13.3946 16.3636L16.3636 19.3327" stroke="#6D300E" stroke-width="2" stroke-linecap="round"/>
<path d="M10.9567 18.2079L10.2542 21.531" stroke="#6D300E" stroke-width="2" stroke-linecap="round"/>
<path d="M12.7396 18.2079L13.4422 21.531" stroke="#6D300E" stroke-width="2" stroke-linecap="round"/>
<path d="M15.6758 14.0977L17.2744 15.2409L15.4595 15.6143C14.1347 15.8869 12.9768 16.6846 12.2501 17.8254L11.8169 18.5055L11.0559 17.526C10.3121 16.5686 9.24565 15.914 8.05518 15.6842L6.54547 15.3928L8.09892 14.2805C9.08081 13.5774 9.77506 12.5427 10.0534 11.3675L10.3053 10.3037L11.8169 9.81818L13.5146 10.3037L13.7141 11.1624C13.9894 12.3468 14.6868 13.3903 15.6758 14.0977Z" fill="#DB7628" stroke="#DB7628" stroke-width="2" stroke-linecap="round" stroke-linejoin="round"/>
<circle cx="6" cy="9.27272" r="4.90909" fill="#020202"/>
<path d="M8.72726 8.72728H15.6225" stroke="#020202" stroke-width="2" stroke-linecap="round" stroke-linejoin="round"/>
<circle cx="18" cy="9.27272" r="4.90909" fill="#020202"/>
<circle cx="6.00001" cy="9.27273" r="2.72727" fill="#F6FAFE"/>
<circle cx="18" cy="9.27273" r="2.72727" fill="#F6FAFE"/>
<circle cx="6.54545" cy="9.27273" r="1.63636" fill="#020202"/>
<circle cx="17.4797" cy="9.27273" r="1.63636" fill="#020202"/>
</svg>
