<svg width="24" height="24" viewBox="0 0 24 24" fill="none" xmlns="http://www.w3.org/2000/svg">
<circle cx="12" cy="12" r="11" fill="#FCC145"/>
<path d="M3.35632 12.3815V11.673C3.35632 10.9404 3.57467 10.2244 3.98348 9.61649L4.37059 9.04082C5.55332 7.28199 8.09608 7.15803 9.44427 8.79348L9.63784 9.02829C10.586 10.1784 10.4841 11.8657 9.40457 12.8935L9.0508 13.2303C8.31316 13.9325 7.18541 14.0377 6.32607 13.4911V13.4911C6.01153 13.291 5.7515 13.0121 5.57491 12.6838L5.45509 12.4611C5.15689 11.9067 5.18048 11.2347 5.51682 10.7025L5.55113 10.6483C5.64778 10.4953 5.77289 10.3624 5.91967 10.2567L6.11005 10.1195C6.48758 9.84755 6.99644 9.84634 7.37526 10.1165L7.40117 10.135C7.93417 10.5151 7.99801 11.283 7.53509 11.7459V11.7459" stroke="#020202" stroke-linecap="round"/>
<path d="M19.2148 7.89628L19.5758 8.50584C19.9491 9.13621 20.126 9.86354 20.084 10.595L20.0443 11.2875C19.9228 13.4036 17.798 14.8059 15.8047 14.0856L15.5185 13.9822C14.1166 13.4756 13.3445 11.9719 13.7497 10.5375L13.8825 10.0675C14.1594 9.08734 15.0685 8.422 16.0864 8.45448V8.45448C16.4657 8.46659 16.8355 8.57585 17.1605 8.77181L17.3762 8.90189C17.9128 9.22549 18.2408 9.80639 18.2408 10.433L18.2408 10.5373C18.2408 10.748 18.1915 10.9559 18.0967 11.1441L18.0238 11.2888C17.8199 11.6936 17.3903 11.9338 16.9387 11.8953L16.8791 11.8903C16.2268 11.8348 15.7806 11.2066 15.943 10.5724V10.5724" stroke="#020202" stroke-linecap="round"/>
<path d="M7.71295 18.1338L8.20405 18.4306C8.78791 18.7836 9.51462 18.8025 10.1161 18.4805V18.4805C10.6776 18.1797 11.3513 18.1751 11.917 18.468L11.9966 18.5092C12.5885 18.8158 13.2947 18.8058 13.8777 18.4825V18.4825C14.4256 18.1788 15.0845 18.1506 15.6564 18.4064L15.8905 18.5112" stroke="#020202" stroke-width="2" stroke-linecap="round"/>
</svg>
