<svg width="24" height="24" viewBox="0 0 24 24" fill="none" xmlns="http://www.w3.org/2000/svg">
<circle cx="12" cy="12" r="12" fill="#FFC45F"/>
<path d="M2.57056 12.4161V11.6433C2.57056 10.8441 2.80875 10.063 3.25473 9.39981L3.67703 8.7718C4.96727 6.85307 7.7412 6.71785 9.21195 8.50197L9.42311 8.75813C10.4574 10.0128 10.3463 11.8535 9.16864 12.9747L8.78272 13.3421C7.97801 14.1082 6.74775 14.2229 5.81028 13.6266V13.6266C5.46715 13.4083 5.18347 13.1042 4.99083 12.746L4.86012 12.503C4.53481 11.8982 4.56055 11.1651 4.92746 10.5846L4.96489 10.5254C5.07033 10.3586 5.20681 10.2135 5.36693 10.0982L5.57462 9.94857C5.98647 9.65187 6.54159 9.65055 6.95486 9.94528L6.98312 9.96544C7.56458 10.3801 7.63421 11.2178 7.12921 11.7228V11.7228" stroke="#020202" stroke-linecap="round"/>
<path d="M19.8707 7.52321L20.2645 8.18818C20.6717 8.87587 20.8647 9.66931 20.8189 10.4672L20.7755 11.2228C20.643 13.5312 18.3251 15.0609 16.1505 14.2752L15.8383 14.1624C14.309 13.6098 13.4667 11.9694 13.9087 10.4045L14.0536 9.89176C14.3557 8.82254 15.3474 8.09672 16.4579 8.13216V8.13216C16.8717 8.14536 17.2751 8.26455 17.6296 8.47833L17.8649 8.62024C18.4503 8.97325 18.8082 9.60696 18.8082 10.2906L18.8082 10.4043C18.8082 10.6342 18.7543 10.861 18.6509 11.0663L18.5714 11.2241C18.349 11.6658 17.8804 11.9277 17.3877 11.8858L17.3226 11.8803C16.611 11.8197 16.1243 11.1344 16.3015 10.4426V10.4426" stroke="#020202" stroke-linecap="round"/>
<path d="M7.32324 18.6914L7.85899 19.0152C8.49593 19.4003 9.2887 19.4209 9.94482 19.0696V19.0696C10.5574 18.7415 11.2924 18.7364 11.9095 19.056L11.9963 19.101C12.6421 19.4354 13.4124 19.4245 14.0484 19.0718V19.0718C14.6461 18.7405 15.3649 18.7097 15.9888 18.9888L16.2442 19.1031" stroke="#020202" stroke-width="2" stroke-linecap="round"/>
</svg>
