<svg width="24" height="24" viewBox="0 0 24 24" fill="none" xmlns="http://www.w3.org/2000/svg">
<circle cx="12" cy="12" r="12" fill="#FFC45F"/>
<path d="M13.5299 16.8586L13.7963 16.9802C14.1282 17.1317 14.4216 17.3563 14.6546 17.6371C14.9277 17.9662 15.1088 18.3616 15.1795 18.7834L15.1971 18.8879C15.2627 19.2796 14.9608 19.6364 14.5637 19.6364H14.4982H13.6738H12.0249H10.3761H9.55171H9.48572C9.08832 19.6364 8.78569 19.2801 8.84997 18.8879L8.86755 18.7807C8.93639 18.3607 9.11517 17.9665 9.38572 17.638C9.61746 17.3566 9.90998 17.1315 10.2413 16.9795L10.4984 16.8615C11.4605 16.4201 12.567 16.419 13.5299 16.8586Z" fill="#020202"/>
<ellipse cx="18" cy="12" rx="1.63636" ry="2.18182" fill="#020202"/>
<ellipse cx="6.00001" cy="12" rx="1.63636" ry="2.18182" fill="#020202"/>
</svg>
