<svg width="24" height="24" viewBox="0 0 24 24" fill="none" xmlns="http://www.w3.org/2000/svg">
<circle cx="12" cy="12" r="11" fill="#FCC145"/>
<path d="M13.4024 16.4537L13.6466 16.5652C13.9509 16.7041 14.2198 16.9099 14.4334 17.1673C14.6837 17.469 14.8497 17.8315 14.9145 18.2181L14.9306 18.3139C14.9908 18.6729 14.7141 19 14.35 19H14.29H13.5343H12.0228H10.5114H9.75571H9.69522C9.33094 19 9.05353 18.6734 9.11246 18.3139L9.12857 18.2156C9.19167 17.8307 9.35555 17.4693 9.60356 17.1681C9.81598 16.9102 10.0841 16.7038 10.3878 16.5645L10.6235 16.4563C11.5054 16.0517 12.5198 16.0508 13.4024 16.4537Z" fill="#020202"/>
<ellipse cx="17.5" cy="12" rx="1.5" ry="2" fill="#020202"/>
<ellipse cx="6.5" cy="12" rx="1.5" ry="2" fill="#020202"/>
</svg>
