<svg width="24" height="24" viewBox="0 0 24 24" fill="none" xmlns="http://www.w3.org/2000/svg">
<circle cx="12" cy="12" r="11" fill="#FCC145"/>
<circle cx="6.5" cy="11.5" r="1.5" fill="#020202"/>
<circle cx="17.5" cy="11.5" r="1.5" fill="#020202"/>
<path d="M14.4246 18.2942L14.8363 18.1063C15.3495 17.872 15.8031 17.5249 16.1632 17.0908C16.5854 16.582 16.8653 15.9706 16.9747 15.3187L17.0018 15.157C17.1033 14.5516 16.6366 14 16.0227 14H15.9214H14.6469H12.0979H9.54897H8.27448H8.17247C7.55812 14 7.09028 14.5508 7.18965 15.157L7.21683 15.3228C7.32325 15.9721 7.59963 16.5816 8.01789 17.0894C8.37613 17.5243 8.82834 17.8724 9.34051 18.1074L9.73805 18.2898C11.2254 18.9722 12.936 18.9738 14.4246 18.2942Z" fill="#020202"/>
</svg>
