<svg width="24" height="24" viewBox="0 0 24 24" fill="none" xmlns="http://www.w3.org/2000/svg">
<circle cx="12" cy="12" r="12" fill="#FFC45F"/>
<circle cx="6.00001" cy="11.4545" r="1.63636" fill="#020202"/>
<circle cx="18" cy="11.4545" r="1.63636" fill="#020202"/>
<path d="M14.645 18.8664L15.0942 18.6614C15.654 18.4058 16.1488 18.0271 16.5417 17.5536C17.0022 16.9986 17.3077 16.3316 17.4269 15.6204L17.4565 15.444C17.5673 14.7835 17.0581 14.1818 16.3884 14.1818H16.2779H14.8875H12.1069H9.32616H7.93582H7.82453C7.15433 14.1818 6.64396 14.7827 6.75237 15.444L6.78201 15.6249C6.89811 16.3332 7.19961 16.9981 7.65589 17.5521C8.0467 18.0266 8.54003 18.4063 9.09875 18.6626L9.53243 18.8616C11.155 19.606 13.0211 19.6078 14.645 18.8664Z" fill="#020202"/>
</svg>
