<svg width="24" height="24" viewBox="0 0 24 24" fill="none" xmlns="http://www.w3.org/2000/svg">
<circle cx="11.9544" cy="12" r="11.9178" fill="#FFC45F"/>
<path d="M9.78754 19.0263V19.0263C11.1983 18.5841 12.7105 18.5841 14.1213 19.0263V19.0263" stroke="#020202" stroke-width="2" stroke-linecap="round" stroke-linejoin="round"/>
<circle cx="5.99552" cy="15.8974" r="1.62516" fill="#020202"/>
<circle cx="17.9133" cy="15.8974" r="1.62516" fill="#020202"/>
<mask id="mask0_1_206" style="mask-type:alpha" maskUnits="userSpaceOnUse" x="0" y="0" width="24" height="24">
<circle cx="11.9544" cy="12" r="11.9178" fill="#FCC145"/>
</mask>
<g mask="url(#mask0_1_206)">
<path d="M24.1027 13.2142L13.8115 8.62371L23.8678 5.44241L24.1027 13.2142Z" fill="#F0F7FE"/>
</g>
<mask id="mask1_1_206" style="mask-type:alpha" maskUnits="userSpaceOnUse" x="13" y="5" width="12" height="9">
<path d="M24.1027 13.2142L13.8115 8.62371L23.8678 5.44241L24.1027 13.2142Z" fill="#F0F7FE"/>
</mask>
<g mask="url(#mask1_1_206)">
<mask id="mask2_1_206" style="mask-type:alpha" maskUnits="userSpaceOnUse" x="0" y="0" width="24" height="24">
<circle cx="11.9544" cy="12" r="11.9178" fill="#FCC145"/>
</mask>
<g mask="url(#mask2_1_206)">
<path d="M23.8722 7.96422L20.7493 8.20785C18.5669 8.3781 16.4097 8.7867 14.3162 9.42636L13.0673 9.80796" stroke="#B5BAC1" stroke-width="3"/>
</g>
</g>
<mask id="mask3_1_206" style="mask-type:alpha" maskUnits="userSpaceOnUse" x="0" y="0" width="24" height="24">
<circle cx="11.9544" cy="12" r="11.9178" fill="#FCC145"/>
</mask>
<g mask="url(#mask3_1_206)">
<path d="M-0.761414 12.9903L6.77188 9.09563C9.01149 7.93776 11.3881 7.06684 13.8456 6.50345L14.5792 6.33526C18.1356 5.51995 21.8108 5.36022 25.4244 5.8639L25.8541 5.92378" stroke="#F0F7FE" stroke-width="4" stroke-linecap="round" stroke-linejoin="round"/>
</g>
</svg>
