<svg width="24" height="24" viewBox="0 0 24 24" fill="none" xmlns="http://www.w3.org/2000/svg">
<circle cx="12" cy="12" r="11" fill="#FCC145"/>
<path d="M10 18.4852V18.4852C11.3021 18.077 12.6979 18.077 14 18.4852V18.4852" stroke="#020202" stroke-width="2" stroke-linecap="round" stroke-linejoin="round"/>
<circle cx="6.5" cy="15.5973" r="1.5" fill="#020202"/>
<circle cx="17.5" cy="15.5973" r="1.5" fill="#020202"/>
<mask id="mask0_1_206" style="mask-type:alpha" maskUnits="userSpaceOnUse" x="1" y="1" width="22" height="22">
<circle cx="12" cy="12" r="11" fill="#FCC145"/>
</mask>
<g mask="url(#mask0_1_206)">
<path d="M23.2128 13.1207L13.7141 8.88372L22.996 5.94742L23.2128 13.1207Z" fill="#F0F7FE"/>
</g>
<mask id="mask1_1_206" style="mask-type:alpha" maskUnits="userSpaceOnUse" x="13" y="5" width="11" height="9">
<path d="M23.2128 13.1207L13.7141 8.88372L22.996 5.94742L23.2128 13.1207Z" fill="#F0F7FE"/>
</mask>
<g mask="url(#mask1_1_206)">
<mask id="mask2_1_206" style="mask-type:alpha" maskUnits="userSpaceOnUse" x="1" y="1" width="22" height="22">
<circle cx="12" cy="12" r="11" fill="#FCC145"/>
</mask>
<g mask="url(#mask2_1_206)">
<path d="M23 8.27502L20.3704 8.48016C18.188 8.65042 16.0308 9.05902 13.9374 9.69867L13.0272 9.97678" stroke="#B5BAC1" stroke-width="3"/>
</g>
</g>
<mask id="mask3_1_206" style="mask-type:alpha" maskUnits="userSpaceOnUse" x="1" y="1" width="22" height="22">
<circle cx="12" cy="12" r="11" fill="#FCC145"/>
</mask>
<g mask="url(#mask3_1_206)">
<path d="M0.263428 12.914L6.96505 9.44933C9.19921 8.29429 11.5745 7.42447 14.026 6.86246V6.86246C17.5664 6.05078 21.2317 5.89028 24.8292 6.39172V6.39172" stroke="#F0F7FE" stroke-width="4" stroke-linecap="round" stroke-linejoin="round"/>
</g>
</svg>
