<svg width="24" height="24" viewBox="0 0 24 24" fill="none" xmlns="http://www.w3.org/2000/svg">
<circle cx="12" cy="12" r="12" fill="#F1882A"/>
<path d="M4.26609 17.7676C4.26609 18.9457 3.31109 19.9007 2.13305 19.9007C0.954997 19.9007 0 18.9457 0 17.7676C0 16.1091 1.37963 13.473 2.13305 13.473C2.88646 13.473 4.26609 16.1091 4.26609 17.7676Z" fill="#66C4FD"/>
<circle cx="15.7236" cy="12.5455" r="1.67085" fill="#020202"/>
<circle cx="1.67085" cy="1.67085" r="1.67085" transform="matrix(-1 0 0 1 10.0006 10.8746)" fill="#020202"/>
<path d="M16.3253 8.72743L18.6242 11.0263" stroke="#020202" stroke-width="2" stroke-linecap="round"/>
<path d="M7.728 8.72743L5.42912 11.0263" stroke="#020202" stroke-width="2" stroke-linecap="round"/>
<ellipse cx="12" cy="19.6156" rx="4.71214" ry="2.99654" fill="#020202"/>
<path fill-rule="evenodd" clip-rule="evenodd" d="M11.4005 19.3341C11.2355 18.7547 10.6319 18.4188 10.0525 18.5838C9.56465 18.7228 9.24942 19.1725 9.26044 19.6571V21.2603C9.26044 21.9869 9.54909 22.6838 10.0629 23.1976C11.1328 24.2675 12.8675 24.2675 13.9374 23.1976C14.4512 22.6838 14.7398 21.9869 14.7398 21.2603V19.6429C14.7398 19.0404 14.2514 18.5519 13.6489 18.5519C13.4438 18.5519 13.2519 18.6086 13.0879 18.707C12.8243 18.8403 12.6154 19.0795 12.5294 19.3863C12.4542 19.6547 12.2542 19.7863 11.9873 19.7816C11.7132 19.7767 11.4835 19.6253 11.4005 19.3341Z" fill="#F85B5F"/>
</svg>
