<svg width="24" height="24" viewBox="0 0 24 24" fill="none" xmlns="http://www.w3.org/2000/svg">
<circle cx="12" cy="12" r="11" fill="#F1882A"/>
<path d="M4.91058 17.287C4.91058 18.3669 4.03517 19.2423 2.95529 19.2423C1.87541 19.2423 1 18.3669 1 17.287C1 15.7667 2.26466 13.3502 2.95529 13.3502C3.64592 13.3502 4.91058 15.7667 4.91058 17.287Z" fill="#66C4FD"/>
<circle cx="15.4133" cy="12.5" r="1.53162" fill="#020202"/>
<circle cx="1.53162" cy="1.53162" r="1.53162" transform="matrix(-1 0 0 1 10.1672 10.9684)" fill="#020202"/>
<path d="M15.9649 9.00015L18.0722 11.1075" stroke="#020202" stroke-width="2" stroke-linecap="round"/>
<path d="M8.08398 9.00015L5.97668 11.1075" stroke="#020202" stroke-width="2" stroke-linecap="round"/>
<ellipse cx="12" cy="18.981" rx="4.31946" ry="2.74683" fill="#020202"/>
<path fill-rule="evenodd" clip-rule="evenodd" d="M11.4505 18.7229C11.2992 18.1918 10.746 17.8839 10.2148 18.0352C9.7678 18.1625 9.47889 18.5745 9.48874 19.0184V20.4886C9.48874 21.1547 9.75333 21.7935 10.2243 22.2644C11.2051 23.2452 12.7952 23.2452 13.776 22.2644C14.2469 21.7935 14.5115 21.1547 14.5115 20.4886V19.006C14.5115 18.4537 14.0638 18.006 13.5115 18.006C13.3234 18.006 13.1475 18.0579 12.9972 18.1482C12.7556 18.2703 12.5641 18.4896 12.4853 18.7708C12.4163 19.0168 12.233 19.1374 11.9884 19.1331C11.7371 19.1287 11.5265 18.9898 11.4505 18.7229Z" fill="#F85B5F"/>
</svg>
