<svg width="24" height="24" viewBox="0 0 24 24" fill="none" xmlns="http://www.w3.org/2000/svg">
<path fill-rule="evenodd" clip-rule="evenodd" d="M24 12C24 18.6274 18.6274 24 12 24C5.37258 24 0 18.6274 0 12C0 9.63491 0.684211 7.42962 1.86549 5.57129L1.42002 2.55543C1.32202 1.89199 1.89198 1.32204 2.55541 1.42004L5.57126 1.86551C7.42961 0.684217 9.6349 0 12 0C14.1341 0 16.138 0.557073 17.8744 1.53373L21.5454 0.991484C22.2089 0.893489 22.7788 1.46344 22.6808 2.12687L22.1649 5.61941C23.3275 7.46765 24 9.65529 24 12Z" fill="#9B59B6"/>
<path d="M5.53491 10.9651L8.80764 12.056" stroke="#020202" stroke-width="2" stroke-linecap="round"/>
<path d="M18.4745 10.9651L15.2018 12.056" stroke="#020202" stroke-width="2" stroke-linecap="round"/>
<circle cx="7.1368" cy="13.3951" r="1.67085" fill="#020202"/>
<circle cx="1.67085" cy="1.67085" r="1.67085" transform="matrix(-1 0 0 1 18.5435 11.7243)" fill="#020202"/>
<path d="M9.85257 18.5449V18.5449C10.8728 17.0025 13.1366 17.0025 14.1568 18.5449V18.5449" stroke="#020202" stroke-width="2" stroke-linecap="round"/>
<rect x="5.46594" y="11.3076" width="3.34171" height="2.08755" fill="#020202"/>
<rect x="15.2018" y="11.3076" width="3.34171" height="2.08755" fill="#020202"/>
</svg>
