<svg width="24" height="24" viewBox="0 0 24 24" fill="none" xmlns="http://www.w3.org/2000/svg">
<path fill-rule="evenodd" clip-rule="evenodd" d="M23 12C23 18.0751 18.0751 23 12 23C5.92487 23 1 18.0751 1 12C1 9.832 1.62719 7.81049 2.71003 6.10701L2.31808 3.45349C2.22009 2.79006 2.79004 2.2201 3.45347 2.3181L6.10699 2.71005C7.81047 1.6272 9.83199 1 12 1C13.9562 1 15.7932 1.51065 17.3849 2.40592L20.639 1.92526C21.3024 1.82726 21.8724 2.39722 21.7744 3.06065L21.3179 6.15113C22.3836 7.84534 23 9.85068 23 12Z" fill="#9B59B6"/>
<path d="M6.07367 11.0513L9.07367 12.0513" stroke="#020202" stroke-width="2" stroke-linecap="round"/>
<path d="M17.935 11.0513L14.935 12.0513" stroke="#020202" stroke-width="2" stroke-linecap="round"/>
<circle cx="7.54205" cy="13.2789" r="1.53162" fill="#020202"/>
<circle cx="1.53162" cy="1.53162" r="1.53162" transform="matrix(-1 0 0 1 17.9982 11.7473)" fill="#020202"/>
<path d="M10.0315 17.9995V17.9995C10.9667 16.5856 13.0419 16.5856 13.9771 17.9995V17.9995" stroke="#020202" stroke-width="2" stroke-linecap="round"/>
<rect x="6.01044" y="11.3653" width="3.06323" height="1.91359" fill="#020202"/>
<rect x="14.935" y="11.3653" width="3.06323" height="1.91359" fill="#020202"/>
</svg>
