<svg width="24" height="24" viewBox="0 0 24 24" fill="none" xmlns="http://www.w3.org/2000/svg">
<circle cx="12" cy="12" r="11" fill="#FCC145"/>
<path d="M9.0303 13.0265L8.7018 12.9912C7.74053 12.8876 6.77562 13.1508 6 13.728V13.728" stroke="#020202" stroke-width="2" stroke-linecap="round"/>
<path d="M14.9697 13.0265L15.2982 12.9912C16.2595 12.8876 17.2244 13.1508 18 13.728V13.728" stroke="#020202" stroke-width="2" stroke-linecap="round"/>
<path d="M8.2168 17.8776V17.8776C10.0967 20.423 13.9033 20.423 15.7832 17.8776V17.8776" stroke="#020202" stroke-width="2" stroke-linecap="round"/>
<mask id="mask0_1_238" style="mask-type:alpha" maskUnits="userSpaceOnUse" x="1" y="1" width="22" height="22">
<circle cx="12" cy="12" r="11" fill="#FCC145"/>
</mask>
<g mask="url(#mask0_1_238)">
<path d="M1.35956 6.65994V6.65994C8.132 9.38585 15.6924 9.40842 22.481 6.723L22.6404 6.65994" stroke="#F1882A" stroke-width="2" stroke-linecap="round"/>
</g>
<path d="M1.3171 4.70383C1.13058 6.52183 7.62049 7.8385 12 7.8385V5.9692C8.54759 5.97008 3.20058 5.70638 3.32369 4.2437C3.44679 2.78101 9.73908 1.22406 9.73908 1.22406C5.45009 1.41504 1.50362 2.88583 1.3171 4.70383Z" fill="#00AAFC"/>
<path d="M22.6829 4.70383C22.8694 6.52183 16.3795 7.8385 12 7.8385V5.9692C15.4524 5.97008 20.7994 5.70638 20.6763 4.2437C20.5532 2.78101 14.2609 1.22406 14.2609 1.22406C18.5499 1.41504 22.4964 2.88583 22.6829 4.70383Z" fill="#00AAFC"/>
</svg>
