<svg width="24" height="24" viewBox="0 0 24 24" fill="none" xmlns="http://www.w3.org/2000/svg">
<circle cx="12" cy="12" r="12" fill="#FFC45F"/>
<path d="M8.76032 13.1199L8.40195 13.0813C7.35329 12.9683 6.30065 13.2554 5.45453 13.8851V13.8851" stroke="#020202" stroke-width="2" stroke-linecap="round"/>
<path d="M15.2397 13.1199L15.5981 13.0813C16.6467 12.9683 17.6993 13.2554 18.5455 13.8851V13.8851" stroke="#020202" stroke-width="2" stroke-linecap="round"/>
<path d="M7.87286 18.4119V18.4119C9.9237 21.1887 14.0763 21.1887 16.1272 18.4119V18.4119" stroke="#020202" stroke-width="2" stroke-linecap="round"/>
<mask id="mask0_1_238" style="mask-type:alpha" maskUnits="userSpaceOnUse" x="0" y="0" width="24" height="24">
<circle cx="12" cy="12" r="12" fill="#FCC145"/>
</mask>
<g mask="url(#mask0_1_238)">
<path d="M0.392273 6.17448L0.794097 6.33622C7.92423 9.20609 15.8839 9.22985 23.031 6.40261L23.6077 6.17448" stroke="#F1882A" stroke-width="2" stroke-linecap="round"/>
</g>
<path d="M0.345904 4.04054C0.142426 6.02382 7.22233 7.46018 12 7.46018V5.42095C8.2337 5.4219 2.40061 5.13424 2.5349 3.53858C2.6692 1.94292 9.53352 0.244431 9.53352 0.244431C4.85462 0.45277 0.549381 2.05727 0.345904 4.04054Z" fill="#00AAFC"/>
<path d="M23.6541 4.04054C23.8576 6.02382 16.7777 7.46018 12 7.46018V5.42095C15.7663 5.4219 21.5994 5.13424 21.4651 3.53858C21.3308 1.94292 14.4665 0.244431 14.4665 0.244431C19.1454 0.45277 23.4506 2.05727 23.6541 4.04054Z" fill="#00AAFC"/>
</svg>
