<svg width="24" height="24" viewBox="0 0 24 24" fill="none" xmlns="http://www.w3.org/2000/svg">
<circle cx="12" cy="12" r="11.4992" fill="#FFC45F"/>
<path d="M14.2856 17.8312L14.6442 17.6675C15.0912 17.4634 15.4863 17.1611 15.8 16.7829C16.1677 16.3398 16.4116 15.8073 16.5068 15.2394L16.5304 15.0986C16.6189 14.5712 16.2123 14.0908 15.6776 14.0908H15.5893H14.4792H12.259H10.0387H8.92861H8.83974C8.30463 14.0908 7.89712 14.5705 7.98368 15.0986L8.00735 15.243C8.10004 15.8085 8.34078 16.3394 8.7051 16.7817C9.01714 17.1606 9.41104 17.4638 9.85716 17.6685L10.2034 17.8273C11.4989 18.4217 12.9889 18.4232 14.2856 17.8312Z" fill="#020202"/>
<path d="M8.89555 11.1599L8.55213 11.123C7.54724 11.0147 6.53854 11.2898 5.72772 11.8932V11.8932" stroke="#020202" stroke-width="2" stroke-linecap="round"/>
<path d="M15.1045 11.1599L15.4479 11.123C16.4528 11.0147 17.4615 11.2898 18.2723 11.8932V11.8932" stroke="#020202" stroke-width="2" stroke-linecap="round"/>
<path d="M23.647 17.6409C24.1889 18.5795 23.8673 19.7798 22.9287 20.3217C21.99 20.8636 20.7898 20.542 20.2479 19.6034C19.485 18.2819 19.3715 15.5469 19.9718 15.2003C20.5721 14.8537 22.8841 16.3195 23.647 17.6409Z" fill="#66C4FD"/>
<path d="M0.353012 17.6409C-0.188909 18.5795 0.132691 19.7798 1.07133 20.3217C2.00996 20.8636 3.21019 20.542 3.75211 19.6034C4.51504 18.2819 4.62847 15.5469 4.02817 15.2003C3.42788 14.8537 1.11594 16.3195 0.353012 17.6409Z" fill="#66C4FD"/>
</svg>
