<svg width="24" height="24" viewBox="0 0 24 24" fill="none" xmlns="http://www.w3.org/2000/svg">
<circle cx="12" cy="12" r="11" fill="#FCC145"/>
<path d="M14.1863 17.5781L14.5294 17.4214C14.957 17.2262 15.3349 16.937 15.635 16.5753C15.9868 16.1514 16.2201 15.642 16.3112 15.0987L16.3338 14.9641C16.4184 14.4596 16.0294 14 15.5179 14H15.4335H14.3716H12.2477H10.1239H9.06193H8.97693C8.46504 14 8.07522 14.4589 8.15802 14.9641L8.18067 15.1022C8.26934 15.6432 8.49963 16.151 8.84813 16.5742C9.14663 16.9366 9.52342 17.2266 9.95017 17.4224L10.2814 17.5744C11.5207 18.143 12.946 18.1443 14.1863 17.5781Z" fill="#020202"/>
<path d="M9.0303 11.1964L8.7018 11.161C7.74053 11.0575 6.77562 11.3207 6 11.8979V11.8979" stroke="#020202" stroke-width="2" stroke-linecap="round"/>
<path d="M14.9697 11.1964L15.2982 11.161C16.2595 11.0575 17.2244 11.3207 18 11.8979V11.8979" stroke="#020202" stroke-width="2" stroke-linecap="round"/>
<path d="M23.1414 17.396C23.6598 18.2939 23.3521 19.442 22.4543 19.9604C21.5564 20.4788 20.4082 20.1712 19.8898 19.2733C19.16 18.0092 19.0515 15.3929 19.6258 15.0614C20.2 14.7298 22.4116 16.132 23.1414 17.396Z" fill="#66C4FD"/>
<path d="M0.858614 17.396C0.340218 18.2939 0.647857 19.442 1.54575 19.9604C2.44363 20.4788 3.59176 20.1712 4.11015 19.2733C4.83997 18.0092 4.94847 15.3929 4.37423 15.0614C3.79999 14.7298 1.58843 16.132 0.858614 17.396Z" fill="#66C4FD"/>
</svg>
