<svg width="24" height="24" viewBox="0 0 24 24" fill="none" xmlns="http://www.w3.org/2000/svg">
<circle cx="12" cy="12" r="11" fill="#FCC145"/>
<path d="M6 10.0013L9 11.4711L6 13.0013" stroke="#020202" stroke-width="2" stroke-linecap="round" stroke-linejoin="round"/>
<path d="M18 10.0013L15 11.4711L18 13.0013" stroke="#020202" stroke-width="2" stroke-linecap="round" stroke-linejoin="round"/>
<path d="M13.7055 17.6096L14.0073 17.4718C14.3834 17.3001 14.7159 17.0456 14.9799 16.7274C15.2894 16.3545 15.4946 15.9063 15.5747 15.4284L15.5946 15.3099C15.669 14.8661 15.3269 14.4618 14.8769 14.4618H14.8026H13.8684H12H10.1316H9.19734H9.12256C8.67224 14.4618 8.3293 14.8655 8.40214 15.3099L8.42206 15.4315C8.50007 15.9074 8.70266 16.3541 9.00925 16.7264C9.27185 17.0452 9.60333 17.3004 9.97876 17.4726L10.2702 17.6063C11.3604 18.1065 12.6143 18.1077 13.7055 17.6096Z" fill="#020202"/>
</svg>
