<svg width="24" height="24" viewBox="0 0 24 24" fill="none" xmlns="http://www.w3.org/2000/svg">
<circle cx="12" cy="12" r="12" fill="#FFC45F"/>
<path d="M5.45453 9.81958L8.72726 11.423L5.45453 13.0923" stroke="#020202" stroke-width="2" stroke-linecap="round" stroke-linejoin="round"/>
<path d="M18.5455 9.81958L15.2727 11.423L18.5455 13.0923" stroke="#020202" stroke-width="2" stroke-linecap="round" stroke-linejoin="round"/>
<path d="M13.8605 18.1195L14.1898 17.9692C14.6001 17.7819 14.9628 17.5043 15.2508 17.1572C15.5884 16.7504 15.8123 16.2614 15.8997 15.7401L15.9214 15.6108C16.0026 15.1267 15.6293 14.6856 15.1384 14.6856H15.0574H14.0383H12H9.96169H8.94255H8.86097C8.36971 14.6856 7.99559 15.1261 8.07506 15.6108L8.09679 15.7434C8.18189 16.2626 8.4029 16.75 8.73736 17.1561C9.02383 17.5039 9.38544 17.7822 9.795 17.9701L10.1129 18.116C11.3022 18.6617 12.6701 18.663 13.8605 18.1195Z" fill="#020202"/>
</svg>
