<svg width="24" height="24" viewBox="0 0 24 24" fill="none" xmlns="http://www.w3.org/2000/svg">
<circle cx="12" cy="12" r="12" fill="#FFC45F"/>
<path d="M8.76035 10.0324L8.40198 9.99384C7.35332 9.8809 6.30069 10.168 5.45456 10.7977V10.7977" stroke="#020202" stroke-width="2" stroke-linecap="round"/>
<path d="M15.2397 10.0324L15.598 9.99384C16.6467 9.8809 17.6993 10.168 18.5454 10.7977V10.7977" stroke="#020202" stroke-width="2" stroke-linecap="round"/>
<mask id="mask0_1_112" style="mask-type:alpha" maskUnits="userSpaceOnUse" x="0" y="0" width="24" height="24">
<circle cx="12" cy="12" r="12" fill="#FCC145"/>
</mask>
<g mask="url(#mask0_1_112)">
<path d="M0 13.3111V13.3111C7.48112 17.2698 16.5062 17.2458 24 13.3111V13.3111" stroke="#949BA4" stroke-width="2" stroke-linecap="round"/>
<path d="M1.09091 19.6364L8.76586 18.8041C10.9157 18.571 13.0844 18.571 15.2341 18.8041L22.9091 19.6364" stroke="#949BA4" stroke-width="2" stroke-linecap="round"/>
</g>
<rect x="6.54544" y="14.1818" width="10.9091" height="6.54545" rx="1" fill="#F0F7FE"/>
</svg>
