<svg width="24" height="24" viewBox="0 0 24 24" fill="none" xmlns="http://www.w3.org/2000/svg">
<circle cx="12" cy="12" r="11" fill="#FCC145"/>
<path d="M9.0303 10.1964L8.7018 10.161C7.74053 10.0575 6.77562 10.3207 6 10.8979V10.8979" stroke="#020202" stroke-width="2" stroke-linecap="round"/>
<path d="M14.9697 10.1964L15.2982 10.161C16.2595 10.0575 17.2244 10.3207 18 10.8979V10.8979" stroke="#020202" stroke-width="2" stroke-linecap="round"/>
<mask id="mask0_1_112" style="mask-type:alpha" maskUnits="userSpaceOnUse" x="1" y="1" width="22" height="22">
<circle cx="12" cy="12" r="11" fill="#FCC145"/>
</mask>
<g mask="url(#mask0_1_112)">
<path d="M1 13.2019V13.2019C7.85769 16.8307 16.1307 16.8087 23 13.2019V13.2019" stroke="#949BA4" stroke-width="2" stroke-linecap="round"/>
<path d="M2 19L8.76585 18.2663C10.9157 18.0332 13.0843 18.0332 15.2341 18.2663L22 19" stroke="#949BA4" stroke-width="2" stroke-linecap="round"/>
</g>
<rect x="7" y="14" width="10" height="6" rx="1" fill="#F0F7FE"/>
</svg>
