<svg width="24" height="24" viewBox="0 0 24 24" fill="none" xmlns="http://www.w3.org/2000/svg">
<path d="M1.72983 18.5035L4.48557 16.7843C5.0513 16.4314 5.73209 16.3122 6.38406 16.4521L13.3135 17.9382C13.6851 17.8262 14.0679 17.7537 14.4556 17.7222L21.7052 17.1336C21.8283 17.1236 21.9473 17.1804 22.0171 17.2823C22.1689 17.5041 22.0192 17.8065 21.7507 17.8203L14.5028 18.1933L18.7067 19.0949C18.9285 19.1425 19.1396 19.2304 19.3295 19.3544L20.8268 20.3318C21.1926 20.5706 21.2048 21.1023 20.8503 21.3575C20.754 21.4268 20.64 21.4671 20.5216 21.4738L12.1618 21.9428C12.0442 21.9494 11.9451 21.8558 11.9451 21.738C11.9451 21.601 11.8134 21.5025 11.682 21.5412L8.92909 22.353C8.78315 22.396 8.63339 22.4248 8.4819 22.4389L5.30634 22.7343C4.88695 22.7733 4.46507 22.778 4.04491 22.7483L2.40507 22.6326C2.3781 22.6307 2.35185 22.623 2.32811 22.61C2.18794 22.5336 2.20042 22.3284 2.34881 22.2694L12.3361 18.3048L1.8372 18.845C1.78985 18.8475 1.74337 18.8316 1.70736 18.8008C1.61255 18.7195 1.62388 18.5696 1.72983 18.5035Z" fill="#FFC45F"/>
<path d="M11.9451 21.738V21.738C11.9451 21.601 11.8134 21.5025 11.682 21.5412L8.92909 22.353C8.78315 22.396 8.63339 22.4248 8.4819 22.4389L5.30634 22.7343C4.88695 22.7733 4.46507 22.778 4.04491 22.7483L2.40507 22.6326C2.3781 22.6307 2.35185 22.623 2.32811 22.61V22.61C2.18794 22.5336 2.20042 22.3284 2.34881 22.2694L12.8716 18.0922C13.3784 17.8911 13.9122 17.7664 14.4556 17.7222L21.7052 17.1336C21.8283 17.1236 21.9473 17.1804 22.0171 17.2823V17.2823C22.1689 17.5041 22.0192 17.8065 21.7507 17.8203L1.8372 18.845C1.78985 18.8475 1.74337 18.8316 1.70736 18.8008V18.8008C1.61255 18.7195 1.62388 18.5696 1.72983 18.5035L4.48557 16.7843C5.0513 16.4314 5.73209 16.3122 6.38406 16.4521L18.7067 19.0949C18.9285 19.1425 19.1396 19.2304 19.3295 19.3544L20.8268 20.3318C21.1926 20.5706 21.2048 21.1023 20.8503 21.3575V21.3575C20.754 21.4268 20.64 21.4671 20.5216 21.4738L12.1618 21.9428C12.0442 21.9494 11.9451 21.8558 11.9451 21.738Z" stroke="#FFC45F" stroke-width="2" stroke-linecap="round"/>
<circle cx="12" cy="11.5" r="11.5" fill="#FFC45F"/>
<ellipse cx="17.732" cy="10.6742" rx="1.56818" ry="2.09091" transform="rotate(4.5399 17.732 10.6742)" fill="#020202"/>
<ellipse cx="6.26804" cy="9.20341" rx="1.56818" ry="2.09091" transform="rotate(8.35502 6.26804 9.20341)" fill="#020202"/>
<path d="M7.71689 14.1924V14.1924C9.46547 17.0007 13.4326 17.3157 15.6024 14.8185V14.8185" stroke="#020202" stroke-width="2" stroke-linecap="round"/>
</svg>
