<svg width="24" height="24" viewBox="0 0 24 24" fill="none" xmlns="http://www.w3.org/2000/svg">
<path d="M2.17634 18.699L4.81228 17.0546C5.35341 16.717 6.0046 16.603 6.62821 16.7368L13.2564 18.1583C13.6118 18.0512 13.978 17.9818 14.3488 17.9517L21.2832 17.3887C21.401 17.3791 21.5148 17.4334 21.5816 17.5309C21.7267 17.7431 21.5835 18.0323 21.3268 18.0455L14.394 18.4023L18.4151 19.2647C18.6272 19.3102 18.8291 19.3943 19.0108 19.5129L20.443 20.4478C20.793 20.6763 20.8046 21.1848 20.4655 21.4289C20.3734 21.4952 20.2644 21.5338 20.1511 21.5402L12.1547 21.9888C12.0422 21.9951 11.9475 21.9055 11.9475 21.7928C11.9475 21.6618 11.8215 21.5676 11.6958 21.6046L9.06259 22.3811C8.92301 22.4223 8.77975 22.4498 8.63485 22.4633L5.59736 22.7458C5.1962 22.7831 4.79266 22.7876 4.39077 22.7593L2.82223 22.6485C2.79643 22.6467 2.77132 22.6394 2.74861 22.627C2.61454 22.5538 2.62648 22.3576 2.76842 22.3012L12.3215 18.5089L2.27905 19.0257C2.23376 19.028 2.1893 19.0129 2.15486 18.9834C2.06417 18.9056 2.07501 18.7622 2.17634 18.699Z" fill="#FCC145" stroke="#FCC145" stroke-width="2" stroke-linecap="round"/>
<circle cx="12" cy="12" r="11" fill="#FCC145"/>
<ellipse cx="17.4827" cy="11.2101" rx="1.5" ry="2" transform="rotate(4.5399 17.4827 11.2101)" fill="#020202"/>
<ellipse cx="6.51726" cy="9.80327" rx="1.5" ry="2" transform="rotate(8.35502 6.51726 9.80327)" fill="#020202"/>
<path d="M7.90311 14.5753V14.5753C9.57566 17.2615 13.3703 17.5628 15.4458 15.1742V15.1742" stroke="#020202" stroke-width="2" stroke-linecap="round"/>
</svg>
