<svg width="24" height="24" viewBox="0 0 24 24" fill="none" xmlns="http://www.w3.org/2000/svg">
<circle cx="12" cy="12" r="11" fill="#FCC145"/>
<path d="M14.7369 17.8404L15.2985 17.5965C15.8776 17.345 16.3935 16.9676 16.8086 16.4917C17.3172 15.9086 17.657 15.1977 17.7914 14.4357L17.8152 14.3002C17.9348 13.6219 17.413 13 16.7242 13H16.5389H15.0334H12.0222H9.01112H7.50556H7.31939C6.63008 13 6.10699 13.6209 6.22404 14.3002L6.24824 14.4407C6.37898 15.1994 6.71444 15.9081 7.21842 16.4902C7.63125 16.967 8.14552 17.3454 8.72356 17.5977L9.26809 17.8354C11.0113 18.5962 12.9923 18.598 14.7369 17.8404Z" fill="#020202"/>
<path fill-rule="evenodd" clip-rule="evenodd" d="M11.1126 15.1162C10.9416 14.9794 10.7246 14.8976 10.4886 14.8976C9.9363 14.8976 9.48859 15.3453 9.48859 15.8976V17.3803C9.48859 18.0463 9.75318 18.6851 10.2242 19.1561C11.2049 20.1368 12.795 20.1368 13.7758 19.1561C14.2468 18.6851 14.5114 18.0463 14.5114 17.3803V15.8976C14.5114 15.3453 14.0637 14.8976 13.5114 14.8976C13.2843 14.8976 13.075 14.9732 12.9071 15.1007C12.7085 15.2284 12.5541 15.4265 12.4854 15.6718C12.4164 15.9178 12.2331 16.0384 11.9885 16.0341C11.7396 16.0297 11.5305 15.8934 11.4528 15.6314C11.4399 15.5848 11.4238 15.5395 11.4046 15.4959C11.3381 15.3438 11.2366 15.2149 11.1126 15.1162Z" fill="#26B968"/>
<path d="M5.59035 9.76966L5.92986 9.99846C6.06949 10.0926 6.21919 10.1708 6.37617 10.2317V10.2317C6.92009 10.4427 7.52449 10.4356 8.06331 10.2119L8.35997 10.0887L8.53329 9.98829C9.02549 9.70314 9.14946 9.04732 8.79531 8.60219V8.60219C8.687 8.46605 8.54274 8.36296 8.37886 8.30459L7.22371 7.89316L6.31378 7.68216C6.04948 7.62088 5.82838 7.4408 5.71486 7.19438V7.19438C5.58214 6.90629 5.61518 6.56901 5.80129 6.31216L5.90499 6.16903C6.05737 5.95872 6.27488 5.80457 6.52379 5.73047L6.77228 5.6565C7.06894 5.56819 7.38241 5.55201 7.68658 5.60931L7.75337 5.62189C8.15027 5.69664 8.51932 5.87807 8.82093 6.14668L8.97626 6.28503" stroke="#020202" stroke-linecap="round"/>
<path d="M7.5 4.52213V11.0658" stroke="#020202" stroke-linecap="round"/>
<path d="M14.5904 9.76966L14.9299 9.99846C15.0695 10.0926 15.2192 10.1708 15.3762 10.2317V10.2317C15.9201 10.4427 16.5245 10.4356 17.0633 10.2119L17.36 10.0887L17.5333 9.98829C18.0255 9.70314 18.1495 9.04732 17.7953 8.60219V8.60219C17.687 8.46605 17.5427 8.36296 17.3789 8.30459L16.2237 7.89316L15.3138 7.68216C15.0495 7.62088 14.8284 7.4408 14.7149 7.19438V7.19438C14.5821 6.90629 14.6152 6.56901 14.8013 6.31216L14.905 6.16903C15.0574 5.95872 15.2749 5.80457 15.5238 5.73047L15.7723 5.6565C16.0689 5.56819 16.3824 5.55201 16.6866 5.60931L16.7534 5.62189C17.1503 5.69664 17.5193 5.87807 17.8209 6.14668L17.9763 6.28503" stroke="#020202" stroke-linecap="round"/>
<path d="M16.5 4.52213V11.0658" stroke="#020202" stroke-linecap="round"/>
</svg>
