<svg width="24" height="24" viewBox="0 0 24 24" fill="none" xmlns="http://www.w3.org/2000/svg">
<circle cx="12" cy="12" r="12" fill="#FFC45F"/>
<path d="M14.9857 18.3713L15.5983 18.1053C16.2301 17.8309 16.7929 17.4192 17.2457 16.9001C17.8006 16.264 18.1713 15.4884 18.3178 14.6571L18.3439 14.5093C18.4744 13.7693 17.9051 13.0909 17.1537 13.0909H16.9515H15.3091H12.0243H8.73939H7.09696H6.89386C6.14189 13.0909 5.57125 13.7683 5.69894 14.5093L5.72533 14.6625C5.86796 15.4903 6.23392 16.2634 6.78371 16.8984C7.23407 17.4186 7.7951 17.8314 8.42569 18.1066L9.01972 18.3659C10.9214 19.1959 13.0825 19.1979 14.9857 18.3713Z" fill="#020202"/>
<path fill-rule="evenodd" clip-rule="evenodd" d="M11.0319 15.3994C10.8453 15.2502 10.6087 15.161 10.3512 15.161C9.74867 15.161 9.26025 15.6494 9.26025 16.2519V17.8694C9.26025 18.596 9.5489 19.2928 10.0627 19.8066C11.1326 20.8766 12.8673 20.8766 13.9372 19.8066C14.451 19.2928 14.7397 18.596 14.7397 17.8694V16.2519C14.7397 15.6494 14.2512 15.161 13.6487 15.161C13.4011 15.161 13.1727 15.2435 12.9896 15.3826C12.7729 15.5219 12.6045 15.738 12.5295 16.0056C12.4543 16.2739 12.2543 16.4055 11.9874 16.4008C11.7159 16.396 11.4878 16.2473 11.403 15.9615C11.3888 15.9101 11.371 15.8603 11.3499 15.8123C11.2773 15.647 11.1668 15.5069 11.0319 15.3994Z" fill="#26B968"/>
<path d="M5.00768 9.5669L5.37805 9.8165C5.53038 9.91916 5.69369 10.0045 5.86494 10.0709V10.0709C6.45831 10.3012 7.11765 10.2934 7.70545 10.0493L8.02909 9.91494L8.21817 9.8054C8.7551 9.49433 8.89035 8.77889 8.50401 8.29329V8.29329C8.38585 8.14478 8.22847 8.03232 8.04969 7.96864L6.78953 7.51981L5.79688 7.28963C5.50855 7.22277 5.26735 7.02633 5.14351 6.75751V6.75751C4.99873 6.44323 5.03477 6.07528 5.2378 5.79508L5.35093 5.63894C5.51716 5.40951 5.75444 5.24135 6.02598 5.16052L6.29706 5.07982C6.62069 4.98348 6.96265 4.96583 7.29448 5.02833L7.36734 5.04206C7.80032 5.12361 8.20293 5.32153 8.53195 5.61456L8.70141 5.76549" stroke="#020202" stroke-linecap="round"/>
<path d="M7.09088 3.84232V10.9808" stroke="#020202" stroke-linecap="round"/>
<path d="M14.8259 9.5669L15.1962 9.8165C15.3486 9.91916 15.5119 10.0045 15.6831 10.0709V10.0709C16.2765 10.3012 16.9358 10.2934 17.5236 10.0493L17.8473 9.91494L18.0363 9.8054C18.5733 9.49433 18.7085 8.77889 18.3222 8.29329V8.29329C18.204 8.14478 18.0466 8.03232 17.8679 7.96864L16.6077 7.51981L15.6151 7.28963C15.3267 7.22277 15.0855 7.02633 14.9617 6.75751V6.75751C14.8169 6.44323 14.853 6.07528 15.056 5.79508L15.1691 5.63894C15.3353 5.40951 15.5726 5.24135 15.8442 5.16052L16.1152 5.07982C16.4389 4.98348 16.7808 4.96583 17.1127 5.02833L17.1855 5.04206C17.6185 5.12361 18.0211 5.32153 18.3501 5.61456L18.5196 5.76549" stroke="#020202" stroke-linecap="round"/>
<path d="M16.9091 3.84232V10.9808" stroke="#020202" stroke-linecap="round"/>
</svg>
