<svg width="24" height="24" viewBox="0 0 24 24" fill="none" xmlns="http://www.w3.org/2000/svg">
<circle cx="12" cy="12" r="11" fill="#FCC145"/>
<path d="M8.2168 15.9478V15.9478C10.0967 18.4932 13.9033 18.4932 15.7832 15.9478V15.9478" stroke="#020202" stroke-width="2" stroke-linecap="round"/>
<path d="M1.1745 9.01689C1.1745 7.91232 2.06993 7.01689 3.1745 7.01689H8.05765C9.16222 7.01689 10.0576 7.91232 10.0576 9.01689V9.99335C10.0576 11.6502 8.7145 12.9933 7.05765 12.9933H4.1745C2.51765 12.9933 1.1745 11.6502 1.1745 9.99335V9.01689Z" fill="#F0F7FE" stroke="#020202" stroke-width="2"/>
<path d="M23 9.01689C23 7.91232 22.1046 7.01689 21 7.01689H16.1169C15.0123 7.01689 14.1169 7.91232 14.1169 9.01689V9.99335C14.1169 11.6502 15.46 12.9933 17.1169 12.9933H20C21.6569 12.9933 23 11.6502 23 9.99335V9.01689Z" fill="#F0F7FE" stroke="#020202" stroke-width="2"/>
<circle cx="17.9687" cy="9.99182" r="1" fill="#020202"/>
<circle cx="5.965" cy="9.99182" r="1" fill="#020202"/>
<path d="M10.3795 9.99182L13.9219 9.99182" stroke="#020202" stroke-width="2" stroke-linecap="round"/>
</svg>
