<svg width="24" height="24" viewBox="0 0 24 24" fill="none" xmlns="http://www.w3.org/2000/svg">
<mask id="mask0_1_232" style="mask-type:alpha" maskUnits="userSpaceOnUse" x="0" y="0" width="9" height="9">
<path d="M0.0795364 0.414525L1.15931 8.94048L8.24054 1.6601L0.436593 0.0827784C0.235432 0.0421201 0.053751 0.210922 0.0795364 0.414525Z" fill="#D9D9D9"/>
</mask>
<g mask="url(#mask0_1_232)">
<path d="M1.70606 -1.0659L1.46961 -0.929262C0.37552 -0.296991 -0.517999 0.631121 -1.10828 1.74843V1.74843" stroke="#6571F3" stroke-width="3"/>
<path d="M3.52927 0.283081V0.283081C2.01269 1.35733 0.768146 2.77113 -0.105077 4.41172L-0.13623 4.47025" stroke="#D4D7FC" stroke-width="2"/>
<path d="M5.01082 0.708557V0.708557C3.3865 1.95175 2.00543 3.48389 0.936906 5.22809L0.686371 5.63705" stroke="#6571F3" stroke-width="2"/>
<path d="M7.50142 0.562347V0.562347C4.72261 2.49032 2.37929 4.97994 0.622944 7.87029L0.22522 8.52481" stroke="#D4D7FC" stroke-width="2"/>
</g>
<circle cx="12.2806" cy="12.2818" r="11.7194" fill="#FFC45F"/>
<path d="M12.2806 13.9547L14.9958 14.8015C15.7947 15.0506 15.7947 16.1813 14.9958 16.4304L14.8737 16.4685C14.102 16.7091 14.1139 17.8054 14.8906 18.0292V18.0292C15.6762 18.2556 15.6762 19.3687 14.8906 19.595L12.2806 20.3471" stroke="#020202" stroke-width="2" stroke-linecap="round" stroke-linejoin="round"/>
<path d="M8.18347 10.7243L7.83565 10.7785C6.81787 10.937 5.89744 11.4739 5.25842 12.2818V12.2818" stroke="#020202" stroke-width="2" stroke-linecap="round"/>
<path d="M14.2957 9.08655L14.624 8.95956C15.5847 8.58796 16.6503 8.5927 17.6076 8.97283V8.97283" stroke="#020202" stroke-width="2" stroke-linecap="round"/>
<path d="M15.4804 17.0647H20.1158C20.9225 17.0647 21.6818 16.6841 22.1645 16.0379L22.4739 15.6238C22.822 15.1578 22.8988 14.5429 22.676 14.0056L22.6581 13.9624C22.5929 13.8052 22.4995 13.6612 22.3824 13.5375V13.5375C21.8427 12.9673 20.939 12.9543 20.3831 13.5088L20.3631 13.5287C20.2334 13.6581 20.1299 13.8112 20.0583 13.9798L19.813 14.5568" stroke="#E655D4" stroke-width="2" stroke-linecap="round"/>
</svg>
