<svg width="24" height="24" viewBox="0 0 24 24" fill="none" xmlns="http://www.w3.org/2000/svg">
<mask id="mask0_1_232" style="mask-type:alpha" maskUnits="userSpaceOnUse" x="0" y="0" width="9" height="9">
<path d="M0.551155 0.886694L1.56143 8.86383L8.20796 2.03036L0.908211 0.554946C0.70705 0.514288 0.52537 0.683091 0.551155 0.886694Z" fill="#D9D9D9"/>
</mask>
<g mask="url(#mask0_1_232)">
<path d="M2.07462 -0.528305L1.85269 -0.400052C0.825755 0.193407 -0.0129136 1.06455 -0.566956 2.11327V2.11327" stroke="#6571F3" stroke-width="3"/>
<path d="M3.78589 0.737869V0.737869C2.3624 1.74617 1.19426 3.07319 0.374639 4.61306L0.345398 4.668" stroke="#D4D7FC" stroke-width="2"/>
<path d="M5.17651 1.13722V1.13722C3.6519 2.3041 2.35561 3.74219 1.35268 5.37931L1.11752 5.76317" stroke="#6571F3" stroke-width="2"/>
<path d="M7.51421 1V1C4.90597 2.80962 2.7065 5.14641 1.05797 7.85933L0.684662 8.47367" stroke="#D4D7FC" stroke-width="2"/>
</g>
<circle cx="12" cy="12" r="11" fill="#FCC145"/>
<path d="M12 13.5703L14.5486 14.365C15.2984 14.5988 15.2984 15.6601 14.5486 15.8939L14.4339 15.9297C13.7096 16.1556 13.7208 17.1846 14.4498 17.3946V17.3946C15.1872 17.6071 15.1872 18.6519 14.4498 18.8643L12 19.5703" stroke="#020202" stroke-width="2" stroke-linecap="round" stroke-linejoin="round"/>
<path d="M8.15439 10.5381L7.82793 10.589C6.87262 10.7378 6.00869 11.2417 5.4089 12V12" stroke="#020202" stroke-width="2" stroke-linecap="round"/>
<path d="M13.8914 9.00093L14.1995 8.88173C15.1013 8.53294 16.1014 8.53739 17 8.89419V8.89419" stroke="#020202" stroke-width="2" stroke-linecap="round"/>
<path d="M15.0034 16.4893H19.3543C20.1114 16.4893 20.8241 16.1321 21.2772 15.5256L21.5675 15.1369C21.8943 14.6995 21.9664 14.1223 21.7573 13.618L21.7405 13.5775C21.6793 13.4299 21.5916 13.2947 21.4817 13.1787V13.1787C20.9751 12.6435 20.1269 12.6313 19.6051 13.1517L19.5863 13.1704C19.4646 13.2918 19.3675 13.4355 19.3002 13.5938L19.07 14.1354" stroke="#E655D4" stroke-width="2" stroke-linecap="round"/>
</svg>
