<svg width="24" height="24" viewBox="0 0 24 24" fill="none" xmlns="http://www.w3.org/2000/svg">
<circle cx="12" cy="12" r="12" fill="#FFC45F"/>
<path d="M13.7712 15.2764L14.0847 15.4195C14.4753 15.5978 14.8206 15.8621 15.0948 16.1926C15.4161 16.5798 15.6293 17.0453 15.7125 17.5416L15.7332 17.6647C15.8105 18.1256 15.4551 18.5455 14.9878 18.5455H14.9107H13.9404H12H10.0596H9.08936H9.0117C8.54402 18.5455 8.18787 18.1262 8.26352 17.6647L8.28421 17.5384C8.36522 17.0442 8.57562 16.5802 8.89402 16.1936C9.16674 15.8625 9.51099 15.5975 9.90089 15.4186L10.2035 15.2798C11.3358 14.7603 12.638 14.7591 13.7712 15.2764Z" fill="#020202"/>
<path d="M5.42148 11.7857L5.77985 11.8243C6.8285 11.9373 7.88114 11.6502 8.72726 11.0205V11.0205" stroke="#020202" stroke-width="2" stroke-linecap="round"/>
<path d="M18.5785 11.7857L18.2202 11.8243C17.1715 11.9373 16.1189 11.6502 15.2727 11.0205V11.0205" stroke="#020202" stroke-width="2" stroke-linecap="round"/>
</svg>
