<svg width="24" height="24" viewBox="0 0 24 24" fill="none" xmlns="http://www.w3.org/2000/svg">
<circle cx="12" cy="12" r="11" fill="#FCC145"/>
<path d="M13.6236 15.0034L13.9109 15.1346C14.269 15.298 14.5855 15.5403 14.8369 15.8432C15.1315 16.1982 15.3268 16.6248 15.4031 17.0798L15.422 17.1926C15.4929 17.6151 15.1672 18 14.7388 18H14.6681H13.7787H12H10.2213H9.3319H9.26071C8.83201 18 8.50553 17.6157 8.57488 17.1926L8.59385 17.0769C8.66811 16.6238 8.86097 16.1985 9.15284 15.8441C9.40283 15.5406 9.7184 15.2977 10.0758 15.1337L10.3532 15.0065C11.3911 14.5303 12.5848 14.5291 13.6236 15.0034Z" fill="#020202"/>
<path d="M5.9697 11.8036L6.2982 11.839C7.25947 11.9425 8.22438 11.6793 9 11.1021V11.1021" stroke="#020202" stroke-width="2" stroke-linecap="round"/>
<path d="M18.0303 11.8036L17.7018 11.839C16.7405 11.9425 15.7756 11.6793 15 11.1021V11.1021" stroke="#020202" stroke-width="2" stroke-linecap="round"/>
</svg>
