<svg width="24" height="24" viewBox="0 0 24 24" fill="none" xmlns="http://www.w3.org/2000/svg">
<circle cx="12" cy="12" r="11" fill="#FCC145"/>
<path d="M6 10L9 11.4698L6 13" stroke="#020202" stroke-width="2" stroke-linecap="round" stroke-linejoin="round"/>
<path d="M18 10L15 11.4698L18 13" stroke="#020202" stroke-width="2" stroke-linecap="round" stroke-linejoin="round"/>
<path d="M13.7055 14.8523L14.0073 14.99C14.3834 15.1618 14.7159 15.4162 14.9799 15.7344C15.2894 16.1073 15.4946 16.5555 15.5747 17.0334L15.5946 17.1519C15.669 17.5957 15.3269 18 14.8769 18H14.8026H13.8684H12H10.1316H9.19734H9.12256C8.67224 18 8.3293 17.5963 8.40214 17.1519L8.42206 17.0303C8.50007 16.5544 8.70266 16.1077 9.00925 15.7354C9.27185 15.4166 9.60333 15.1615 9.97876 14.9892L10.2702 14.8555C11.3604 14.3553 12.6143 14.3541 13.7055 14.8523Z" fill="#020202"/>
</svg>
