<svg width="24" height="24" viewBox="0 0 24 24" fill="none" xmlns="http://www.w3.org/2000/svg">
<circle cx="12" cy="12" r="12" fill="#FFC45F"/>
<path d="M5.45453 9.81818L8.72726 11.4216L5.45453 13.0909" stroke="#020202" stroke-width="2" stroke-linecap="round" stroke-linejoin="round"/>
<path d="M18.5455 9.81818L15.2727 11.4216L18.5455 13.0909" stroke="#020202" stroke-width="2" stroke-linecap="round" stroke-linejoin="round"/>
<path d="M13.8605 15.1116L14.1898 15.2619C14.6001 15.4492 14.9628 15.7268 15.2508 16.0739C15.5884 16.4807 15.8123 16.9696 15.8997 17.491L15.9214 17.6202C16.0026 18.1044 15.6293 18.5455 15.1384 18.5455H15.0574H14.0383H12H9.96169H8.94255H8.86097C8.36971 18.5455 7.99559 18.105 8.07506 17.6202L8.09679 17.4877C8.18189 16.9685 8.4029 16.4811 8.73736 16.075C9.02383 15.7272 9.38544 15.4489 9.795 15.261L10.1129 15.1151C11.3022 14.5694 12.6701 14.5681 13.8605 15.1116Z" fill="#020202"/>
</svg>
