<svg width="24" height="24" viewBox="0 0 24 24" fill="none" xmlns="http://www.w3.org/2000/svg">
<circle cx="12" cy="12" r="12" fill="#FFC45F"/>
<path d="M5.42151 10.6948L5.77988 10.7334C6.82853 10.8464 7.88117 10.5593 8.72729 9.9296V9.9296" stroke="#020202" stroke-width="2" stroke-linecap="round"/>
<path d="M18.5785 10.6948L18.2201 10.7334C17.1715 10.8464 16.1188 10.5593 15.2727 9.9296V9.9296" stroke="#020202" stroke-width="2" stroke-linecap="round"/>
<path d="M13.7863 17.4787L14.1024 17.3344C14.4964 17.1545 14.8446 16.888 15.1211 16.5548C15.4452 16.1642 15.6602 15.6948 15.7441 15.1942L15.7649 15.0701C15.8429 14.6053 15.4845 14.1818 15.0132 14.1818H14.9354H13.957H12H10.043H9.06454H8.98622C8.51456 14.1818 8.15537 14.6047 8.23167 15.0701L8.25253 15.1974C8.33423 15.6959 8.54642 16.1638 8.86754 16.5537C9.14258 16.8876 9.48977 17.1549 9.88299 17.3353L10.1882 17.4753C11.3301 17.9992 12.6434 18.0005 13.7863 17.4787Z" fill="#020202"/>
</svg>
