<svg width="24" height="24" viewBox="0 0 24 24" fill="none" xmlns="http://www.w3.org/2000/svg">
<circle cx="12" cy="12" r="11" fill="#FCC145"/>
<path d="M5.9697 10.8036L6.2982 10.839C7.25947 10.9425 8.22438 10.6793 9 10.1021V10.1021" stroke="#020202" stroke-width="2" stroke-linecap="round"/>
<path d="M18.0303 10.8036L17.7018 10.839C16.7405 10.9425 15.7756 10.6793 15 10.1021V10.1021" stroke="#020202" stroke-width="2" stroke-linecap="round"/>
<path d="M13.6374 17.0222L13.9272 16.8899C14.2883 16.725 14.6076 16.4807 14.861 16.1752C15.1581 15.8172 15.3552 15.3869 15.4321 14.928L15.4512 14.8143C15.5227 14.3882 15.1942 14 14.7621 14H14.6908H13.7939H12H10.2061H9.30917H9.23738C8.80502 14 8.47577 14.3876 8.5457 14.8143L8.56483 14.931C8.63972 15.3879 8.83423 15.8168 9.12859 16.1742C9.38071 16.4803 9.69897 16.7253 10.0594 16.8907L10.3392 17.019C11.3859 17.4993 12.5898 17.5004 13.6374 17.0222Z" fill="#020202"/>
</svg>
