<svg width="24" height="24" viewBox="0 0 24 24" fill="none" xmlns="http://www.w3.org/2000/svg">
<circle cx="12" cy="12" r="11" fill="#FCC145"/>
<path d="M4.38879 11.4398L7.54941 10.3578L6.51011 13.5611" stroke="#020202" stroke-width="2" stroke-linecap="round" stroke-linejoin="round"/>
<path d="M11.4758 4.59242L10.3937 7.75304L13.5971 6.71374" stroke="#020202" stroke-width="2" stroke-linecap="round" stroke-linejoin="round"/>
<path d="M13.5247 16.9509L13.1094 17.1059C12.5918 17.2991 12.0372 17.3728 11.4871 17.3216C10.8424 17.2616 10.2251 17.0321 9.69788 16.6563L9.56716 16.5631C9.07753 16.2142 9.0188 15.5089 9.44396 15.0837L9.51411 15.0136L10.3968 14.1309L12.162 12.3656L13.9273 10.6004L14.81 9.71771L14.8806 9.64706C15.3061 9.2216 16.0115 9.27903 16.3626 9.76771L16.4586 9.90136C16.8345 10.4247 17.0652 11.0382 17.1272 11.6796C17.1804 12.2289 17.1083 12.7831 16.9163 13.3006L16.7673 13.7022C16.2099 15.2049 15.0263 16.3907 13.5247 16.9509Z" fill="#020202"/>
<path d="M21.832 6.43039C22.8335 6.69873 23.4278 7.72811 23.1594 8.72957C22.8911 9.73104 21.8617 10.3253 20.8603 10.057C19.4504 9.67923 17.5236 7.90592 17.6952 7.26544C17.8668 6.62496 20.4221 6.05261 21.832 6.43039Z" fill="#66C4FD"/>
<path d="M6.51631 21.872C6.78465 22.8735 7.81403 23.4678 8.81549 23.1994C9.81696 22.9311 10.4113 21.9017 10.1429 20.9003C9.76515 19.4904 7.99184 17.5636 7.35136 17.7352C6.71088 17.9068 6.13853 20.4621 6.51631 21.872Z" fill="#66C4FD"/>
</svg>
