<svg width="24" height="24" viewBox="0 0 24 24" fill="none" xmlns="http://www.w3.org/2000/svg">
<circle cx="11.6581" cy="11.6563" r="11.6581" fill="#FFC45F"/>
<path d="M3.59155 11.0625L6.94125 9.91578L5.83978 13.3108" stroke="#020202" stroke-width="2" stroke-linecap="round" stroke-linejoin="round"/>
<path d="M11.1024 3.80556L9.95567 7.15526L13.3506 6.05378" stroke="#020202" stroke-width="2" stroke-linecap="round" stroke-linejoin="round"/>
<path d="M13.274 16.9034L12.8338 17.0677C12.2852 17.2723 11.6975 17.3505 11.1145 17.2962C10.4313 17.2327 9.77701 16.9894 9.21822 16.5911L9.07968 16.4924C8.56076 16.1225 8.49851 15.3751 8.9491 14.9245L9.02345 14.8501L9.9589 13.9147L11.8298 12.0438L13.7007 10.1729L14.6361 9.23745L14.711 9.16257C15.1619 8.71165 15.9096 8.77252 16.2816 9.29044L16.3834 9.43209C16.7818 9.98672 17.0263 10.6369 17.092 11.3167C17.1483 11.8989 17.0719 12.4863 16.8685 13.0347L16.7106 13.4603C16.1198 15.0529 14.8654 16.3096 13.274 16.9034Z" fill="#020202"/>
<path d="M22.0782 5.75346C23.1396 6.03785 23.7695 7.12881 23.4851 8.19019C23.2007 9.25156 22.1097 9.88143 21.0483 9.59704C19.5541 9.19666 17.5121 7.31726 17.694 6.63847C17.8758 5.95967 20.584 5.35308 22.0782 5.75346Z" fill="#66C4FD"/>
<path d="M5.84634 22.1189C6.13073 23.1803 7.22169 23.8101 8.28307 23.5257C9.34444 23.2413 9.97431 22.1504 9.68992 21.089C9.28954 19.5948 7.41014 17.5527 6.73135 17.7346C6.05255 17.9165 5.44596 20.6246 5.84634 22.1189Z" fill="#66C4FD"/>
</svg>
