<svg width="24" height="24" viewBox="0 0 24 24" fill="none" xmlns="http://www.w3.org/2000/svg">
<circle cx="12.2444" cy="12.2434" r="11.5322" fill="#FFC45F"/>
<path d="M7.97632 18.6144V18.6144C10.7858 19.2824 13.7128 19.2824 16.5223 18.6144V18.6144" stroke="#020202" stroke-width="2" stroke-linecap="round" stroke-linejoin="round"/>
<circle cx="18.1246" cy="13.8504" r="1.60237" fill="#020202"/>
<circle cx="6.19722" cy="13.8504" r="1.60237" fill="#020202"/>
<path d="M16.4868 12.2482H19.9038" stroke="#020202" stroke-width="2" stroke-linecap="round"/>
<path d="M4.55939 12.2482H7.97635" stroke="#020202" stroke-width="2" stroke-linecap="round"/>
<path fill-rule="evenodd" clip-rule="evenodd" d="M10.5128 0.785847C10.7811 1.29893 10.5827 1.93238 10.0696 2.2007L5.81075 4.42788C5.80012 4.43548 5.78931 4.44292 5.77832 4.45019C5.52036 4.62068 5.42421 4.80956 5.39173 4.97328C5.35555 5.15573 5.38747 5.37279 5.49686 5.57501C5.60628 5.77729 5.76895 5.92006 5.93728 5.98716C6.08739 6.047 6.29431 6.06936 6.57661 5.94434C6.62176 5.92435 6.66756 5.90779 6.71373 5.89457L8.46092 4.57651C8.92315 4.22781 9.58054 4.31985 9.92924 4.78208C10.2779 5.24431 10.1859 5.9017 9.72367 6.2504L6.0572 9.01633C5.74497 9.25188 5.39663 9.43527 5.02573 9.55937L4.27397 9.81091C2.16673 10.516 0.0246116 8.83804 0.204571 6.62326C0.290662 5.56373 0.91416 4.6224 1.85615 4.12979L9.0979 0.342665C9.61098 0.0743448 10.2444 0.272764 10.5128 0.785847Z" fill="#F1882A"/>
</svg>
