<svg width="24" height="24" viewBox="0 0 24 24" fill="none" xmlns="http://www.w3.org/2000/svg">
<circle cx="12" cy="12" r="11" fill="#FCC145"/>
<path d="M8 17.9597V17.9597C10.63 18.585 13.37 18.585 16 17.9597V17.9597" stroke="#020202" stroke-width="2" stroke-linecap="round" stroke-linejoin="round"/>
<circle cx="17.5" cy="13.5" r="1.5" fill="#020202"/>
<circle cx="6.33453" cy="13.5" r="1.5" fill="#020202"/>
<path d="M15.9668 12.0002H19.1655" stroke="#020202" stroke-width="2" stroke-linecap="round"/>
<path d="M4.80133 12.0002H8" stroke="#020202" stroke-width="2" stroke-linecap="round"/>
<path fill-rule="evenodd" clip-rule="evenodd" d="M10.3483 1.07124C10.6042 1.56065 10.415 2.16486 9.92556 2.4208L5.86319 4.54524C5.85308 4.55247 5.84279 4.55955 5.83233 4.56647C5.58628 4.72909 5.49456 4.90925 5.46359 5.06542C5.42907 5.23944 5.45952 5.44649 5.56386 5.63937C5.66823 5.83232 5.82339 5.9685 5.98395 6.03251C6.12714 6.08958 6.32451 6.11091 6.59377 5.99166C6.63685 5.97258 6.68056 5.95679 6.72461 5.94418L8.39115 4.68696C8.83205 4.35436 9.45909 4.44214 9.7917 4.88304C10.1243 5.32394 10.0365 5.95099 9.59562 6.2836L6.09837 8.92188C5.80055 9.14655 5.46829 9.32147 5.1145 9.43985L4.39744 9.67978C2.38745 10.3523 0.344196 8.75181 0.515849 6.63925C0.597967 5.62862 1.19269 4.73074 2.0912 4.26085L8.99873 0.648517C9.48813 0.39258 10.0923 0.581842 10.3483 1.07124Z" fill="#F1882A"/>
</svg>
