<svg width="24" height="24" viewBox="0 0 24 24" fill="none" xmlns="http://www.w3.org/2000/svg">
<circle cx="12" cy="12" r="12" fill="#FFC45F"/>
<path d="M18.5455 13.8561L18.1871 13.8947C17.1384 14.0077 16.0858 13.7206 15.2397 13.0909V13.0909" stroke="#020202" stroke-width="2" stroke-linecap="round"/>
<path d="M5.45453 13.8561L5.8129 13.8947C6.86155 14.0077 7.91419 13.7206 8.76031 13.0909V13.0909" stroke="#020202" stroke-width="2" stroke-linecap="round"/>
<circle cx="12" cy="18.5455" r="2.18182" fill="#020202"/>
<path d="M16.8657 8.5968C16.5896 8.5968 16.3657 8.37294 16.3657 8.0968V7.39593C16.3657 7.28159 16.4049 7.1707 16.4768 7.08175L20.4344 2.18201C20.4408 2.17416 20.4442 2.16439 20.4442 2.15431V2.15431C20.4442 2.12996 20.4245 2.11023 20.4002 2.11023H17.0067C16.7306 2.11023 16.5067 1.88637 16.5067 1.61023V0.76622C16.5067 0.490077 16.7306 0.26622 17.0067 0.26622H22.7265C23.0027 0.26622 23.2265 0.490078 23.2265 0.76622V1.59703C23.2265 1.70819 23.1895 1.81619 23.1212 1.90394L19.4068 6.6811C19.4008 6.6889 19.3975 6.69849 19.3975 6.70837V6.70837C19.3975 6.7329 19.4174 6.75279 19.4419 6.75279H22.8675C23.1437 6.75279 23.3675 6.97665 23.3675 7.25279V8.0968C23.3675 8.37294 23.1437 8.5968 22.8675 8.5968H16.8657Z" fill="#4752C4"/>
</svg>
