<svg width="24" height="24" viewBox="0 0 24 24" fill="none" xmlns="http://www.w3.org/2000/svg">
<circle cx="12" cy="12" r="11" fill="#FCC145"/>
<path d="M18 13.7015L17.6715 13.7368C16.7103 13.8404 15.7453 13.5772 14.9697 13V13" stroke="#020202" stroke-width="2" stroke-linecap="round"/>
<path d="M5.99997 13.7015L6.32848 13.7368C7.28974 13.8404 8.25466 13.5772 9.03027 13V13" stroke="#020202" stroke-width="2" stroke-linecap="round"/>
<circle cx="12" cy="18" r="2" fill="#020202"/>
<path d="M16.5019 8.8804C16.2258 8.8804 16.0019 8.65654 16.0019 8.3804V7.79432C16.0019 7.67998 16.0411 7.5691 16.1129 7.48015L19.7316 3.00017C19.7374 2.99298 19.7405 2.98402 19.7405 2.97478C19.7405 2.95247 19.7224 2.93437 19.7001 2.93437H16.6312C16.355 2.93437 16.1312 2.71052 16.1312 2.43437V1.74403C16.1312 1.46789 16.355 1.24403 16.6312 1.24403H21.791C22.0671 1.24403 22.291 1.46789 22.291 1.74403V2.44965C22.291 2.56081 22.2539 2.66881 22.1857 2.75656L18.7896 7.12434C18.784 7.13149 18.781 7.14028 18.781 7.14934C18.781 7.17183 18.7992 7.19006 18.8217 7.19006H21.9202C22.1964 7.19006 22.4202 7.41391 22.4202 7.69006V8.3804C22.4202 8.65654 22.1964 8.8804 21.9202 8.8804H16.5019Z" fill="#4752C4"/>
</svg>
