<svg width="24" height="24" viewBox="0 0 24 24" fill="none" xmlns="http://www.w3.org/2000/svg">
<path fill-rule="evenodd" clip-rule="evenodd" d="M24 12C24 18.6274 18.6274 24 12 24C5.37258 24 0 18.6274 0 12C0 9.63493 0.684201 7.42966 1.86546 5.57133L1.41999 2.55543C1.32199 1.89199 1.89194 1.32204 2.55538 1.42004L5.57126 1.86551C7.4296 0.684219 9.6349 0 12 0C14.1341 0 16.138 0.557073 17.8744 1.53373L21.5454 0.991484C22.2089 0.893489 22.7788 1.46344 22.6808 2.12687L22.1649 5.61941C23.3275 7.46765 24 9.65529 24 12Z" fill="#9B59B6"/>
<path d="M18.4698 10.6261L15.1971 11.717" stroke="#020202" stroke-width="2" stroke-linecap="round"/>
<path d="M5.53003 11.1716L8.80276 12.2625" stroke="#020202" stroke-width="2" stroke-linecap="round"/>
<circle cx="1.67085" cy="1.67085" r="1.67085" transform="matrix(-1 0 0 1 18.5388 11.3853)" fill="#020202"/>
<circle cx="7.13191" cy="13.6016" r="1.67085" fill="#020202"/>
<rect x="15.1971" y="10.9686" width="3.34171" height="2.08755" fill="#020202"/>
<rect width="3.34171" height="2.08755" transform="matrix(-1 0 0 1 8.8028 11.5141)" fill="#020202"/>
<path d="M7.87286 17.4845V17.4845C9.9237 20.2613 14.0763 20.2613 16.1272 17.4845V17.4845" stroke="#020202" stroke-width="2" stroke-linecap="round"/>
</svg>
