<svg width="24" height="24" viewBox="0 0 24 24" fill="none" xmlns="http://www.w3.org/2000/svg">
<path fill-rule="evenodd" clip-rule="evenodd" d="M23 12C23 18.0751 18.0751 23 12 23C5.92487 23 1 18.0751 1 12C1 9.832 1.62719 7.81049 2.71003 6.10701L2.31808 3.45349C2.22009 2.79006 2.79004 2.2201 3.45347 2.3181L6.10699 2.71005C7.81047 1.6272 9.83199 1 12 1C13.9562 1 15.7932 1.51065 17.3849 2.40592L20.639 1.92526C21.3024 1.82726 21.8724 2.39722 21.7744 3.06065L21.3179 6.15113C22.3836 7.84534 23 9.85068 23 12Z" fill="#9B59B6"/>
<path d="M17.9307 10.7406L14.9307 11.7406" stroke="#020202" stroke-width="2" stroke-linecap="round"/>
<path d="M6.06921 11.2406L9.06921 12.2406" stroke="#020202" stroke-width="2" stroke-linecap="round"/>
<circle cx="1.53162" cy="1.53162" r="1.53162" transform="matrix(-1 0 0 1 17.9939 11.4366)" fill="#020202"/>
<circle cx="7.5376" cy="13.4682" r="1.53162" fill="#020202"/>
<rect x="14.9307" y="11.0546" width="3.06323" height="1.91359" fill="#020202"/>
<rect width="3.06323" height="1.91359" transform="matrix(-1 0 0 1 9.06921 11.5546)" fill="#020202"/>
<path d="M8.2168 17.0275V17.0275C10.0967 19.5728 13.9033 19.5728 15.7832 17.0275V17.0275" stroke="#020202" stroke-width="2" stroke-linecap="round"/>
</svg>
