<svg width="24" height="24" viewBox="0 0 24 24" fill="none" xmlns="http://www.w3.org/2000/svg">
<circle cx="12" cy="12" r="12" fill="#FFC45F"/>
<path d="M14.8139 19.1777L15.396 18.9249C15.9964 18.6642 16.5311 18.273 16.9613 17.7797C17.4885 17.1753 17.8408 16.4384 17.98 15.6485L18.0048 15.5081C18.1288 14.805 17.5879 14.1603 16.8739 14.1603H16.6818H15.1212H12H8.87883H7.31823H7.12525C6.41075 14.1603 5.86853 14.804 5.98986 15.5081L6.01494 15.6537C6.15046 16.4402 6.49818 17.1747 7.02059 17.7781C7.44851 18.2724 7.98158 18.6646 8.58076 18.9261L9.14519 19.1725C10.9521 19.9611 13.0056 19.963 14.8139 19.1777Z" fill="#020202"/>
<ellipse cx="18" cy="10.4063" rx="1.63636" ry="2.68457" fill="#020202"/>
<ellipse cx="6.00007" cy="10.4063" rx="1.63636" ry="2.68457" fill="#020202"/>
</svg>
