<svg width="24" height="24" viewBox="0 0 24 24" fill="none" xmlns="http://www.w3.org/2000/svg">
<circle cx="12" cy="12" r="11" fill="#FCC145"/>
<path d="M14.5794 18.5795L15.113 18.3478C15.6633 18.1088 16.1535 17.7502 16.5479 17.2981C17.0312 16.744 17.354 16.0685 17.4817 15.3445L17.5044 15.2158C17.618 14.5712 17.1222 13.9803 16.4677 13.9803H16.2917H14.8611H12H9.13893H7.70838H7.53148C6.87652 13.9803 6.37949 14.5703 6.49071 15.2158L6.5137 15.3492C6.63793 16.0702 6.95667 16.7435 7.43554 17.2966C7.8278 17.7497 8.31646 18.1092 8.8657 18.349L9.3831 18.5748C11.0394 19.2977 12.9218 19.2994 14.5794 18.5795Z" fill="#020202"/>
<ellipse cx="17.5" cy="10.5391" rx="1.5" ry="2.46085" fill="#020202"/>
<ellipse cx="6.50006" cy="10.5391" rx="1.5" ry="2.46085" fill="#020202"/>
</svg>
