<svg width="24" height="24" viewBox="0 0 24 24" fill="none" xmlns="http://www.w3.org/2000/svg">
<circle cx="12" cy="12" r="11" fill="#FCC145"/>
<path d="M6.06314 7.94652L9.06314 9.41631L6.06314 10.9465" stroke="#020202" stroke-width="2" stroke-linecap="round" stroke-linejoin="round"/>
<circle cx="17.5557" cy="9.44652" r="1.5" fill="#020202"/>
<path d="M14.8001 18.0545L15.3616 17.8107C15.9408 17.5591 16.4566 17.1817 16.8717 16.7059C17.3803 16.1228 17.7201 15.4119 17.8545 14.6498L17.8784 14.5144C17.998 13.836 17.4762 13.2141 16.7874 13.2141H16.6021H15.0965H12.0854H9.07426H7.5687H7.38253C6.69322 13.2141 6.17013 13.8351 6.28718 14.5144L6.31138 14.6548C6.44212 15.4136 6.77758 16.1222 7.28156 16.7043C7.69439 17.1812 8.20866 17.5596 8.78671 17.8119L9.33123 18.0495C11.0744 18.8104 13.0555 18.8122 14.8001 18.0545Z" fill="#020202"/>
<path fill-rule="evenodd" clip-rule="evenodd" d="M11.4505 15.6712C11.2992 15.1401 10.746 14.8321 10.2148 14.9834C9.7678 15.1108 9.47889 15.5227 9.48874 15.9667V17.4369C9.48874 18.103 9.75333 18.7417 10.2243 19.2127C11.2051 20.1935 12.7952 20.1935 13.776 19.2127C14.2469 18.7417 14.5115 18.103 14.5115 17.4369V15.9542C14.5115 15.4019 14.0638 14.9542 13.5115 14.9542C13.3234 14.9542 13.1475 15.0061 12.9972 15.0964C12.7556 15.2186 12.5641 15.4379 12.4853 15.7191C12.4163 15.9651 12.233 16.0857 11.9884 16.0814C11.7371 16.0769 11.5265 15.9381 11.4505 15.6712Z" fill="#F85B5F"/>
</svg>
