<svg width="24" height="24" viewBox="0 0 24 24" fill="none" xmlns="http://www.w3.org/2000/svg">
<circle cx="12" cy="12" r="11" fill="#FCC145"/>
<ellipse cx="6.5" cy="10" rx="1.5" ry="2" fill="#020202"/>
<ellipse cx="17.5" cy="10" rx="1.5" ry="2" fill="#020202"/>
<path d="M14.7369 17.8404L15.2985 17.5965C15.8776 17.345 16.3935 16.9676 16.8086 16.4917C17.3172 15.9086 17.657 15.1977 17.7914 14.4357L17.8152 14.3002C17.9348 13.6219 17.413 13 16.7242 13H16.5389H15.0334H12.0222H9.01112H7.50556H7.31939C6.63008 13 6.10699 13.6209 6.22404 14.3002L6.24824 14.4407C6.37898 15.1994 6.71444 15.9081 7.21842 16.4902C7.63125 16.967 8.14552 17.3454 8.72356 17.5977L9.26809 17.8354C11.0113 18.5962 12.9923 18.598 14.7369 17.8404Z" fill="#020202"/>
<path fill-rule="evenodd" clip-rule="evenodd" d="M11.4784 15.3645C11.3271 14.8333 10.7738 14.5254 10.2427 14.6767C9.79561 14.804 9.50669 15.2161 9.5166 15.6601V17.1302C9.5166 17.7962 9.78119 18.435 10.2522 18.906C11.2329 19.8867 12.8231 19.8867 13.8038 18.906C14.2748 18.435 14.5394 17.7962 14.5394 17.1302V15.6475C14.5394 15.0952 14.0917 14.6475 13.5394 14.6475C13.3513 14.6475 13.1753 14.6994 13.0251 14.7897C12.7835 14.9119 12.592 15.1311 12.5132 15.4124C12.4442 15.6583 12.2609 15.7789 12.0163 15.7746C11.765 15.7702 11.5544 15.6314 11.4784 15.3645Z" fill="#F85B5F"/>
</svg>
