<svg width="24" height="24" viewBox="0 0 24 24" fill="none" xmlns="http://www.w3.org/2000/svg">
<circle cx="12" cy="12" r="12" fill="#FFC45F"/>
<ellipse cx="6.00001" cy="9.81819" rx="1.63636" ry="2.18182" fill="#020202"/>
<ellipse cx="18" cy="9.81819" rx="1.63636" ry="2.18182" fill="#020202"/>
<path d="M14.9857 18.3713L15.5983 18.1053C16.2301 17.8309 16.7929 17.4192 17.2457 16.9001C17.8006 16.264 18.1713 15.4884 18.3178 14.6571L18.3439 14.5093C18.4744 13.7693 17.9051 13.0909 17.1537 13.0909H16.9515H15.3091H12.0243H8.73939H7.09696H6.89386C6.14189 13.0909 5.57125 13.7683 5.69894 14.5093L5.72533 14.6625C5.86796 15.4903 6.23392 16.2634 6.78371 16.8984C7.23407 17.4186 7.7951 17.8314 8.42569 18.1066L9.01972 18.3659C10.9214 19.1959 13.0825 19.1979 14.9857 18.3713Z" fill="#020202"/>
<path fill-rule="evenodd" clip-rule="evenodd" d="M11.431 15.6704C11.2659 15.0909 10.6624 14.755 10.0829 14.92C9.59559 15.0589 9.28051 15.5078 9.29083 15.9918V17.5965C9.29083 18.3231 9.57948 19.02 10.0933 19.5338C11.1632 20.6037 12.8979 20.6037 13.9678 19.5338C14.4816 19.02 14.7702 18.3231 14.7702 17.5965V15.9791C14.7702 15.3766 14.2818 14.8882 13.6793 14.8882C13.4741 14.8882 13.2821 14.9448 13.1182 15.0434C12.8546 15.1767 12.6458 15.4158 12.5598 15.7226C12.4846 15.9909 12.2846 16.1225 12.0178 16.1178C11.7436 16.113 11.5139 15.9615 11.431 15.6704Z" fill="#F85B5F"/>
</svg>
