<svg width="24" height="24" viewBox="0 0 24 24" fill="none" xmlns="http://www.w3.org/2000/svg">
<circle cx="12" cy="12" r="12" fill="#FFC45F"/>
<path d="M5.45456 7.5896L8.72729 9.19301L5.45456 10.8623" stroke="#020202" stroke-width="2" stroke-linecap="round" stroke-linejoin="round"/>
<path d="M18.5454 7.5896L15.2727 9.19301L18.5454 10.8623" stroke="#020202" stroke-width="2" stroke-linecap="round" stroke-linejoin="round"/>
<path d="M14.9614 18.2842L15.5741 18.0182C16.2059 17.7438 16.7686 17.3321 17.2214 16.813C17.7763 16.1768 18.147 15.4013 18.2936 14.57L18.3196 14.4222C18.4501 13.6822 17.8808 13.0038 17.1294 13.0038H16.9273H15.2849H12H8.71513H7.0727H6.8696C6.11763 13.0038 5.54699 13.6812 5.67467 14.4222L5.70107 14.5754C5.8437 15.4032 6.20965 16.1762 6.75945 16.8113C7.20981 17.3314 7.77084 17.7443 8.40143 18.0195L8.99546 18.2788C10.8971 19.1088 13.0583 19.1107 14.9614 18.2842Z" fill="#020202"/>
<path fill-rule="evenodd" clip-rule="evenodd" d="M11.4005 16.0268C11.2355 15.4474 10.6319 15.1115 10.0525 15.2765C9.5647 15.4155 9.24948 15.8652 9.26044 16.3496V17.953C9.26044 18.6796 9.54909 19.3765 10.0629 19.8903C11.1328 20.9602 12.8675 20.9602 13.9374 19.8903C14.4512 19.3765 14.7398 18.6796 14.7398 17.953V16.3356C14.7398 15.7331 14.2514 15.2447 13.6489 15.2447C13.4438 15.2447 13.2518 15.3013 13.0879 15.3998C12.8243 15.533 12.6154 15.7723 12.5294 16.0791C12.4542 16.3474 12.2542 16.479 11.9873 16.4743C11.7132 16.4695 11.4835 16.318 11.4005 16.0268Z" fill="#F85B5F"/>
</svg>
