<svg width="24" height="24" viewBox="0 0 24 24" fill="none" xmlns="http://www.w3.org/2000/svg">
<circle cx="12" cy="12" r="12" fill="#FFC45F"/>
<path d="M5.52344 7.57802L8.79616 9.18143L5.52344 10.8507" stroke="#020202" stroke-width="2" stroke-linecap="round" stroke-linejoin="round"/>
<circle cx="18.0608" cy="9.21438" r="1.63636" fill="#020202"/>
<path d="M15.0546 18.605L15.6672 18.3389C16.2991 18.0645 16.8618 17.6528 17.3146 17.1337C17.8695 16.4976 18.2402 15.722 18.3867 14.8907L18.4128 14.743C18.5433 14.0029 17.974 13.3245 17.2226 13.3245H17.0205H15.378H12.0932H8.8083H7.16587H6.96277C6.2108 13.3245 5.64016 14.0019 5.76784 14.743L5.79424 14.8961C5.93687 15.7239 6.30282 16.497 6.85262 17.132C7.30298 17.6522 7.86401 18.065 8.4946 18.3402L9.08863 18.5995C10.9903 19.4295 13.1514 19.4315 15.0546 18.605Z" fill="#020202"/>
<path fill-rule="evenodd" clip-rule="evenodd" d="M11.4005 16.005C11.2355 15.4255 10.6319 15.0896 10.0525 15.2546C9.5647 15.3936 9.24948 15.8433 9.26044 16.3278V17.9312C9.26044 18.6578 9.54909 19.3546 10.0629 19.8684C11.1328 20.9383 12.8675 20.9383 13.9374 19.8684C14.4512 19.3546 14.7398 18.6578 14.7398 17.9312V16.3137C14.7398 15.7112 14.2514 15.2228 13.6489 15.2228C13.4438 15.2228 13.2519 15.2794 13.088 15.3779C12.8244 15.5111 12.6154 15.7503 12.5294 16.0572C12.4542 16.3255 12.2542 16.4571 11.9873 16.4524C11.7132 16.4476 11.4835 16.2961 11.4005 16.005Z" fill="#F85B5F"/>
</svg>
