<svg width="24" height="24" viewBox="0 0 24 24" fill="none" xmlns="http://www.w3.org/2000/svg">
<circle cx="12" cy="12" r="11" fill="#FCC145"/>
<path d="M6 7.95714L9 9.42693L6 10.9571" stroke="#020202" stroke-width="2" stroke-linecap="round" stroke-linejoin="round"/>
<path d="M18 7.95714L15 9.42693L18 10.9571" stroke="#020202" stroke-width="2" stroke-linecap="round" stroke-linejoin="round"/>
<path d="M14.7147 17.7605L15.2762 17.5167C15.8554 17.2651 16.3713 16.8877 16.7863 16.4119C17.2949 15.8288 17.6348 15.1179 17.7691 14.3558L17.793 14.2204C17.9126 13.542 17.3908 12.9201 16.702 12.9201H16.5167H15.0111H12H8.98888H7.48331H7.29714C6.60784 12.9201 6.08474 13.5411 6.20179 14.2204L6.22599 14.3608C6.35673 15.1196 6.69219 15.8282 7.19617 16.4103C7.609 16.8871 8.12327 17.2656 8.70132 17.5179L9.24584 17.7555C10.989 18.5164 12.9701 18.5182 14.7147 17.7605Z" fill="#020202"/>
<path fill-rule="evenodd" clip-rule="evenodd" d="M11.4505 15.6913C11.2992 15.1601 10.746 14.8522 10.2148 15.0035C9.7678 15.1308 9.47889 15.5428 9.48874 15.9867V17.4569C9.48874 18.123 9.75333 18.7618 10.2243 19.2328C11.2051 20.2135 12.7952 20.2135 13.776 19.2328C14.2469 18.7618 14.5115 18.123 14.5115 17.4569V15.9743C14.5115 15.422 14.0638 14.9743 13.5115 14.9743C13.3234 14.9743 13.1475 15.0262 12.9972 15.1165C12.7556 15.2386 12.5641 15.4579 12.4853 15.7391C12.4163 15.9851 12.233 16.1057 11.9884 16.1014C11.7371 16.097 11.5265 15.9581 11.4505 15.6913Z" fill="#F85B5F"/>
</svg>
