<svg width="24" height="24" viewBox="0 0 24 24" fill="none" xmlns="http://www.w3.org/2000/svg">
<circle cx="12" cy="12" r="11" fill="#FCC145"/>
<path d="M7.61871 15.09V15.09C9.91998 17.7805 14.08 17.7805 16.3813 15.09V15.09" stroke="#020202" stroke-width="2" stroke-linecap="round"/>
<path d="M2.59262 9.26014C2.54292 8.596 3.06838 8.02975 3.73437 8.02975H8.32194C8.97792 8.02975 9.48182 8.61075 9.38905 9.26014L9.21327 10.4905L9.10704 11.2341C8.96628 12.2194 8.12244 12.9513 7.12714 12.9513H4.72476C3.67808 12.9513 2.80844 12.1443 2.73033 11.1005L2.68469 10.4905L2.59262 9.26014Z" fill="#020202"/>
<path d="M21.395 9.26014C21.4447 8.596 20.9192 8.02975 20.2532 8.02975H15.6657C15.0097 8.02975 14.5058 8.61075 14.5986 9.26014L14.7743 10.4905L14.8806 11.2341C15.0213 12.2194 15.8652 12.9513 16.8605 12.9513H19.2629C20.3095 12.9513 21.1792 12.1443 21.2573 11.1005L21.3029 10.4905L21.395 9.26014Z" fill="#020202"/>
<path d="M8.93756 10.3593V10.3593C10.9839 9.97474 13.0829 9.96273 15.1336 10.3239L15.3348 10.3593" stroke="#020202" stroke-width="2" stroke-linecap="round"/>
</svg>
