<svg width="24" height="24" viewBox="0 0 24 24" fill="none" xmlns="http://www.w3.org/2000/svg">
<circle cx="12" cy="12" r="12" fill="#FFC45F"/>
<path d="M7.2204 15.3709V15.3709C9.73087 18.306 14.2691 18.306 16.7796 15.3709V15.3709" stroke="#020202" stroke-width="2" stroke-linecap="round"/>
<path d="M1.7374 9.01106C1.68319 8.28654 2.25641 7.66882 2.98295 7.66882H7.98758C8.70319 7.66882 9.25289 8.30264 9.15169 9.01106V9.01106L8.95993 10.3533L8.82174 11.3206C8.68098 12.3059 7.83714 13.0378 6.84184 13.0378H3.89465C2.84798 13.0378 1.97833 12.2308 1.90023 11.187L1.83784 10.3533L1.7374 9.01106V9.01106Z" fill="#020202"/>
<path d="M22.2491 9.01106C22.3033 8.28654 21.7301 7.66882 21.0036 7.66882H15.9989C15.2833 7.66882 14.7336 8.30264 14.8348 9.01106V9.01106L15.0266 10.3533L15.1648 11.3206C15.3055 12.3059 16.1494 13.0378 17.1447 13.0378H20.0919C21.1385 13.0378 22.0082 12.2308 22.0863 11.187L22.1487 10.3533L22.2491 9.01106V9.01106Z" fill="#020202"/>
<path d="M8.65918 10.2101V10.2101C10.8916 9.79062 13.1814 9.77753 15.4185 10.1715L15.638 10.2101" stroke="#020202" stroke-width="2" stroke-linecap="round"/>
</svg>
