<svg width="24" height="24" viewBox="0 0 24 24" fill="none" xmlns="http://www.w3.org/2000/svg">
<circle cx="12" cy="12" r="12" fill="#FFC45F"/>
<path d="M8.76035 11.2348L8.40198 11.1962C7.35332 11.0832 6.30069 11.3703 5.45456 12V12" stroke="#020202" stroke-width="2" stroke-linecap="round"/>
<path d="M15.2397 11.2348L15.598 11.1962C16.6467 11.0832 17.6993 11.3703 18.5454 12V12" stroke="#020202" stroke-width="2" stroke-linecap="round"/>
<path d="M14.6261 20.0546L15.0908 19.8424C15.67 19.578 16.1819 19.1862 16.5885 18.6963C17.0649 18.1221 17.3809 17.432 17.5043 16.6961L17.5349 16.5137C17.6496 15.8303 17.1227 15.2078 16.4298 15.2078H16.3155H14.877H12H9.12302H7.68453H7.56938C6.87598 15.2078 6.34793 15.8294 6.46009 16.5137L6.49077 16.7008C6.61088 17.4336 6.92283 18.1215 7.39491 18.6947C7.79926 19.1857 8.30966 19.5785 8.88774 19.8437L9.33644 20.0496C11.0152 20.8198 12.9459 20.8217 14.6261 20.0546Z" fill="#020202"/>
<path d="M22.8115 5.72646C22.8115 6.90451 21.8565 7.85951 20.6785 7.85951C19.5004 7.85951 18.5454 6.90451 18.5454 5.72646C18.5454 4.06797 19.9251 1.43181 20.6785 1.43181C21.4319 1.43181 22.8115 4.06797 22.8115 5.72646Z" fill="#66C4FD"/>
</svg>
