<svg width="24" height="24" viewBox="0 0 24 24" fill="none" xmlns="http://www.w3.org/2000/svg">
<circle cx="12" cy="12" r="11" fill="#FCC145"/>
<path d="M9.0303 11.2985L8.7018 11.2632C7.74053 11.1596 6.77562 11.4228 6 12V12" stroke="#020202" stroke-width="2" stroke-linecap="round"/>
<path d="M14.9697 11.2985L15.2982 11.2632C16.2595 11.1596 17.2244 11.4228 18 12V12" stroke="#020202" stroke-width="2" stroke-linecap="round"/>
<path d="M14.4072 19.3834L14.8332 19.1889C15.3641 18.9465 15.8334 18.5874 16.2061 18.1383C16.6429 17.6119 16.9325 16.9793 17.0456 16.3048L17.0737 16.1375C17.1788 15.5111 16.6958 14.9404 16.0607 14.9404H15.9559H14.6372H12H9.36276H8.04414H7.93859C7.30298 14.9404 6.81893 15.5103 6.92175 16.1375L6.94986 16.3091C7.05997 16.9808 7.34592 17.6114 7.77866 18.1368C8.14931 18.5868 8.61719 18.947 9.14709 19.1901L9.5584 19.3788C11.0972 20.0848 12.8671 20.0865 14.4072 19.3834Z" fill="#020202"/>
<path d="M21.9106 6.24925C21.9106 7.32913 21.0352 8.20454 19.9553 8.20454C18.8754 8.20454 18 7.32913 18 6.24925C18 4.72897 19.2647 2.31248 19.9553 2.31248C20.6459 2.31248 21.9106 4.72897 21.9106 6.24925Z" fill="#66C4FD"/>
</svg>
