<svg width="24" height="24" viewBox="0 0 24 24" fill="none" xmlns="http://www.w3.org/2000/svg">
<circle cx="12" cy="12" r="11" fill="#FCC145"/>
<path d="M19.2049 11.4518V11.4518C17.8817 12.0943 16.291 11.7513 15.35 10.6208L14.9697 10.1638" stroke="#020202" stroke-width="2" stroke-linecap="round"/>
<path d="M4.98071 11.4518V11.4518C6.30388 12.0943 7.89465 11.7513 8.8356 10.6208L9.21591 10.1638" stroke="#020202" stroke-width="2" stroke-linecap="round"/>
<path d="M13.8371 14.4534L14.1622 14.6018C14.5673 14.7867 14.9255 15.0608 15.2099 15.4036C15.5432 15.8053 15.7642 16.288 15.8506 16.8028L15.872 16.9304C15.9521 17.4084 15.5836 17.8439 15.0989 17.8439H15.0189H14.0126H12H9.98744H8.98115H8.9006C8.41553 17.8439 8.04614 17.4091 8.1246 16.9304L8.14606 16.7995C8.23008 16.2869 8.4483 15.8056 8.77855 15.4047C9.0614 15.0612 9.41846 14.7864 9.82285 14.6009L10.1367 14.4569C11.3111 13.918 12.6617 13.9168 13.8371 14.4534Z" fill="#020202"/>
</svg>
