<svg width="24" height="24" viewBox="0 0 24 24" fill="none" xmlns="http://www.w3.org/2000/svg">
<circle cx="12" cy="12" r="12" fill="#FFC45F"/>
<path d="M19.8599 11.402V11.402C18.4164 12.1028 16.681 11.7287 15.6545 10.4954L15.2397 9.99691" stroke="#020202" stroke-width="2" stroke-linecap="round"/>
<path d="M4.34258 11.402V11.402C5.78604 12.1028 7.52142 11.7287 8.54791 10.4954L8.9628 9.99691" stroke="#020202" stroke-width="2" stroke-linecap="round"/>
<path d="M14.0041 14.6764L14.3587 14.8383C14.8007 15.0401 15.1914 15.3391 15.5017 15.713C15.8653 16.1512 16.1064 16.6778 16.2006 17.2394L16.224 17.3786C16.3114 17.9001 15.9094 18.3752 15.3806 18.3752H15.2933H14.1956H12H9.80447H8.70669H8.61882C8.08966 18.3752 7.68668 17.9008 7.77227 17.3786L7.79568 17.2358C7.88735 16.6766 8.12541 16.1516 8.48567 15.7142C8.79425 15.3395 9.18376 15.0397 9.62491 14.8373L9.96733 14.6802C11.2484 14.0924 12.7219 14.091 14.0041 14.6764Z" fill="#020202"/>
</svg>
