<svg width="24" height="24" viewBox="0 0 24 24" fill="none" xmlns="http://www.w3.org/2000/svg">
<circle cx="12" cy="12" r="12" fill="#FFC45F"/>
<ellipse cx="6.00001" cy="10.9091" rx="1.63636" ry="2.18182" fill="#020202"/>
<ellipse cx="18" cy="10.9091" rx="1.63636" ry="2.18182" fill="#020202"/>
<path d="M14.1803 15.2852L14.5073 15.4428C15.0263 15.693 15.4812 16.0586 15.8371 16.5116C16.2349 17.0178 16.4967 17.6172 16.5977 18.253L16.6306 18.4599C16.7287 19.0774 16.2515 19.6364 15.6262 19.6364H15.5902H14.3629H11.9084H9.45381H8.22654H8.18982C7.56412 19.6364 7.08591 19.0782 7.1819 18.4599L7.21463 18.249C7.31293 17.6158 7.57139 17.0182 7.96549 16.513C8.31954 16.0591 8.77306 15.6925 9.29111 15.4416L9.60466 15.2897C11.0492 14.5898 12.7343 14.5882 14.1803 15.2852Z" fill="#020202"/>
<path d="M6.54543 6.54546L3.27271 7.63637" stroke="#020202" stroke-width="2" stroke-linecap="round"/>
<path d="M17.4546 6.54546L20.7273 7.63637" stroke="#020202" stroke-width="2" stroke-linecap="round"/>
</svg>
