<svg width="24" height="24" viewBox="0 0 24 24" fill="none" xmlns="http://www.w3.org/2000/svg">
<circle cx="12" cy="12" r="11" fill="#FCC145"/>
<ellipse cx="6.5" cy="11" rx="1.5" ry="2" fill="#020202"/>
<ellipse cx="17.5" cy="11" rx="1.5" ry="2" fill="#020202"/>
<path d="M13.9986 15.0114L14.2984 15.1559C14.7741 15.3852 15.1911 15.7203 15.5174 16.1356C15.882 16.5996 16.122 17.1491 16.2146 17.7319L16.2447 17.9216C16.3346 18.4876 15.8972 19 15.3241 19H15.291H14.166H11.916H9.66602H8.54102H8.50735C7.9338 19 7.49544 18.4883 7.58342 17.9216L7.61343 17.7283C7.70354 17.1478 7.94046 16.6001 8.30172 16.1369C8.62626 15.7208 9.04199 15.3848 9.51687 15.1548L9.80429 15.0155C11.1285 14.374 12.6732 14.3725 13.9986 15.0114Z" fill="#020202"/>
<path d="M7 7L4 8" stroke="#020202" stroke-width="2" stroke-linecap="round"/>
<path d="M17 7L20 8" stroke="#020202" stroke-width="2" stroke-linecap="round"/>
</svg>
