<svg width="24" height="24" viewBox="0 0 24 24" fill="none" xmlns="http://www.w3.org/2000/svg">
<circle cx="12" cy="12" r="11" fill="#FCC145"/>
<path d="M9.0303 9.1964L8.7018 9.16102C7.74053 9.0575 6.77562 9.32065 6 9.89786V9.89786" stroke="#020202" stroke-width="2" stroke-linecap="round"/>
<path d="M14.9697 9.1964L15.2982 9.16102C16.2595 9.0575 17.2244 9.32065 18 9.89786V9.89786" stroke="#020202" stroke-width="2" stroke-linecap="round"/>
<path d="M6 13V13C8.96427 17.0708 15.0357 17.0708 18 13V13" stroke="#020202" stroke-width="2" stroke-linecap="round" stroke-linejoin="round"/>
<path fill-rule="evenodd" clip-rule="evenodd" d="M13.6367 15.92C13.4437 15.8166 13.2155 15.7756 12.9834 15.8184C12.4403 15.9187 12.0813 16.4403 12.1816 16.9834L12.4508 18.4414C12.5718 19.0964 12.9479 19.6765 13.4966 20.0541C14.6392 20.8405 16.2028 20.5518 16.9892 19.4092C17.3668 18.8605 17.511 18.1843 17.3901 17.5293L17.1209 16.0713C17.0206 15.5282 16.499 15.1692 15.9559 15.2695C15.7327 15.3108 15.5405 15.4232 15.3986 15.579C15.2265 15.7406 15.1106 15.9635 15.0875 16.2171C15.0644 16.4716 14.9061 16.6234 14.6647 16.6636C14.4191 16.7045 14.1888 16.6084 14.0648 16.3649C14.0437 16.3214 14.0196 16.2798 13.9928 16.2404C13.8998 16.103 13.7766 15.9946 13.6367 15.92Z" fill="#F85B5F"/>
</svg>
