<svg width="24" height="24" viewBox="0 0 24 24" fill="none" xmlns="http://www.w3.org/2000/svg">
<circle cx="12" cy="12" r="12" fill="#FFC45F"/>
<path d="M8.76032 8.94154L8.40195 8.90294C7.35329 8.79001 6.30065 9.07708 5.45453 9.70677V9.70677" stroke="#020202" stroke-width="2" stroke-linecap="round"/>
<path d="M15.2397 8.94154L15.5981 8.90294C16.6467 8.79001 17.6993 9.07708 18.5455 9.70677V9.70677" stroke="#020202" stroke-width="2" stroke-linecap="round"/>
<path d="M5.45453 13.0909V13.0909C8.68828 17.5318 15.3117 17.5318 18.5454 13.0909V13.0909" stroke="#020202" stroke-width="2" stroke-linecap="round" stroke-linejoin="round"/>
<path fill-rule="evenodd" clip-rule="evenodd" d="M13.7855 16.2764C13.5749 16.1635 13.326 16.1188 13.0728 16.1655C12.4803 16.2749 12.0887 16.8439 12.1981 17.4364L12.4918 19.027C12.6237 19.7415 13.0341 20.3744 13.6327 20.7863C14.8791 21.6442 16.5849 21.3292 17.4428 20.0828C17.8547 19.4842 18.012 18.7465 17.8801 18.032L17.5864 16.4414C17.477 15.849 16.908 15.4574 16.3155 15.5668C16.072 15.6117 15.8624 15.7344 15.7076 15.9043C15.5198 16.0807 15.3934 16.3238 15.3682 16.6005C15.343 16.8781 15.1703 17.0437 14.907 17.0876C14.639 17.1322 14.3878 17.0274 14.2525 16.7617C14.2292 16.7138 14.2027 16.668 14.1731 16.6247C14.0718 16.4753 13.9377 16.3576 13.7855 16.2764Z" fill="#F85B5F"/>
</svg>
