<svg width="24" height="24" viewBox="0 0 24 24" fill="none" xmlns="http://www.w3.org/2000/svg">
<circle cx="12" cy="12" r="11" fill="#FCC145"/>
<path d="M16.9866 15.8234L17.351 15.3315C17.7268 14.824 17.9848 14.2393 18.1064 13.6197C18.2553 12.8603 18.1941 12.0748 17.9295 11.3477L17.8824 11.2184C17.6468 10.5711 16.884 10.2935 16.2874 10.6379L16.127 10.7305L14.8231 11.4833L12.2154 12.9889L9.60771 14.4944L8.30385 15.2472L8.14262 15.3403C7.54567 15.685 7.40312 16.4842 7.84414 17.014L7.93531 17.1235C8.42792 17.7153 9.07277 18.1613 9.80027 18.4134C10.3962 18.6199 11.0308 18.6905 11.6575 18.62L12.2479 18.5535C14.138 18.3408 15.8546 17.3519 16.9866 15.8234Z" fill="#020202"/>
<path fill-rule="evenodd" clip-rule="evenodd" d="M11.624 16.2186C11.453 16.0818 11.236 16 11 16C10.4477 16 10 16.4477 10 17V18.4827C10 19.1487 10.2646 19.7875 10.7356 20.2585C11.7163 21.2392 13.3065 21.2392 14.2872 20.2585C14.7582 19.7875 15.0228 19.1487 15.0228 18.4827V17C15.0228 16.4477 14.5751 16 14.0228 16C13.7958 16 13.5864 16.0756 13.4186 16.2031C13.2199 16.3308 13.0655 16.5289 12.9968 16.7742C12.9278 17.0202 12.7446 17.1408 12.4999 17.1365C12.251 17.1321 12.042 16.9958 11.9642 16.7338C11.9513 16.6872 11.9352 16.6419 11.916 16.5983C11.8495 16.4462 11.748 16.3173 11.624 16.2186Z" fill="#F85B5F"/>
<circle cx="6" cy="12" r="2" fill="#F6FAFE"/>
<circle cx="13.5" cy="7.5" r="2.5" fill="#F6FAFE"/>
<circle cx="6" cy="12" r="1" fill="#020202"/>
<circle cx="13.5" cy="7.5" r="1.5" fill="#020202"/>
</svg>
