<svg width="24" height="24" viewBox="0 0 24 24" fill="none" xmlns="http://www.w3.org/2000/svg">
<circle cx="12" cy="12" r="12" fill="#FFC45F"/>
<path d="M17.4399 16.171L17.8374 15.6343C18.2474 15.0808 18.5289 14.4428 18.6615 13.7669C18.824 12.9386 18.7572 12.0816 18.4685 11.2884L18.4172 11.1473C18.1602 10.4412 17.328 10.1384 16.6772 10.5141L16.5022 10.6151L15.0798 11.4363L12.235 13.0788L9.39025 14.7212L7.96786 15.5424L7.79197 15.644C7.14075 16.02 6.98524 16.8919 7.46635 17.4698L7.56581 17.5893C8.1032 18.2348 8.80667 18.7214 9.60031 18.9964C10.2504 19.2217 10.9427 19.2987 11.6264 19.2218L12.2705 19.1493C14.3324 18.9173 16.205 17.8384 17.4399 16.171Z" fill="#020202"/>
<path fill-rule="evenodd" clip-rule="evenodd" d="M11.5899 16.6021C11.4033 16.4528 11.1666 16.3636 10.9091 16.3636C10.3066 16.3636 9.81818 16.852 9.81818 17.4545V19.072C9.81818 19.7986 10.1068 20.4955 10.6206 21.0093C11.6905 22.0792 13.4252 22.0792 14.4951 21.0093C15.0089 20.4955 15.2976 19.7986 15.2976 19.072V17.4545C15.2976 16.852 14.8092 16.3636 14.2067 16.3636C13.959 16.3636 13.7306 16.4462 13.5475 16.5852C13.3308 16.7245 13.1624 16.9407 13.0874 17.2082C13.0122 17.4765 12.8122 17.6081 12.5454 17.6034C12.2738 17.5986 12.0458 17.4499 11.9609 17.1641C11.9468 17.1128 11.929 17.0629 11.9078 17.0149C11.8352 16.8496 11.7247 16.7095 11.5899 16.6021Z" fill="#F85B5F"/>
<circle cx="5.45452" cy="12" r="2.18182" fill="#F6FAFE"/>
<circle cx="13.6364" cy="7.09091" r="2.72727" fill="#F6FAFE"/>
<circle cx="5.45456" cy="12" r="1.09091" fill="#020202"/>
<circle cx="13.6364" cy="7.09091" r="1.63636" fill="#020202"/>
</svg>
